<svg width="593" height="247" viewBox="0 0 593 247" fill="none" xmlns="http://www.w3.org/2000/svg">
<rect x="280" width="33" height="24" rx="4" fill="#FFA91E"/>
<path d="M291.422 16.6094C290.964 16.6094 290.551 16.5182 290.184 16.3359C289.817 16.1536 289.523 15.9036 289.301 15.5859C289.08 15.2682 288.959 14.9062 288.938 14.5H289.875C289.912 14.862 290.076 15.1615 290.368 15.3984C290.662 15.6328 291.014 15.75 291.422 15.75C291.75 15.75 292.042 15.6732 292.297 15.5195C292.555 15.3659 292.757 15.1549 292.903 14.8867C293.051 14.6159 293.125 14.3099 293.125 13.9687C293.125 13.6198 293.049 13.3086 292.895 13.0352C292.744 12.7591 292.536 12.5417 292.27 12.3828C292.004 12.224 291.701 12.1432 291.36 12.1406C291.115 12.138 290.864 12.1758 290.606 12.2539C290.348 12.3294 290.136 12.4271 289.969 12.5469L289.063 12.4375L289.547 8.5H293.704V9.35937H290.36L290.079 11.7187H290.125C290.29 11.5885 290.495 11.4805 290.743 11.3945C290.99 11.3086 291.248 11.2656 291.516 11.2656C292.006 11.2656 292.442 11.3828 292.825 11.6172C293.21 11.849 293.512 12.1667 293.731 12.5703C293.952 12.974 294.063 13.4349 294.063 13.9531C294.063 14.4635 293.948 14.9193 293.719 15.3203C293.493 15.7187 293.18 16.0339 292.782 16.2656C292.383 16.4948 291.93 16.6094 291.422 16.6094ZM298.01 11.517H298.912V13.299H298.01V11.517ZM302.564 7.414H303.477V13.266H302.564V7.414ZM295.414 11.825L295.304 11.154C295.942 11.154 296.624 11.1503 297.35 11.143C298.083 11.1283 298.827 11.1063 299.583 11.077C300.338 11.0403 301.071 10.9817 301.783 10.901L301.838 11.495C301.112 11.5977 300.371 11.6747 299.616 11.726C298.868 11.77 298.134 11.7993 297.416 11.814C296.704 11.8213 296.037 11.825 295.414 11.825ZM296.811 13.629H303.477V15.697H297.735V16.819H296.844V15.081H302.575V14.278H296.811V13.629ZM296.844 16.577H303.807V17.248H296.844V16.577ZM300.584 12.144H302.861V12.738H300.584V12.144ZM298.516 7.601C299.007 7.601 299.436 7.65967 299.803 7.777C300.169 7.89433 300.455 8.06667 300.661 8.294C300.866 8.52133 300.969 8.789 300.969 9.097C300.969 9.39767 300.866 9.66167 300.661 9.889C300.455 10.109 300.169 10.2813 299.803 10.406C299.436 10.5233 299.007 10.582 298.516 10.582C298.024 10.582 297.592 10.5233 297.218 10.406C296.851 10.2813 296.565 10.109 296.36 9.889C296.162 9.66167 296.063 9.39767 296.063 9.097C296.063 8.789 296.162 8.52133 296.36 8.294C296.565 8.06667 296.851 7.89433 297.218 7.777C297.592 7.65967 298.024 7.601 298.516 7.601ZM298.516 8.228C298.032 8.228 297.643 8.305 297.35 8.459C297.064 8.613 296.921 8.82567 296.921 9.097C296.921 9.35367 297.064 9.56267 297.35 9.724C297.643 9.878 298.032 9.955 298.516 9.955C299 9.955 299.385 9.878 299.671 9.724C299.964 9.56267 300.111 9.35367 300.111 9.097C300.111 8.82567 299.964 8.613 299.671 8.459C299.385 8.305 299 8.228 298.516 8.228Z" fill="white"/>
<g clip-path="url(#clip0_632_4175)">
<g clip-path="url(#clip1_632_4175)">
<path d="M8.79199 44.6094C8.25814 44.6094 7.7998 44.4453 7.41699 44.1172C7.03418 43.7891 6.73991 43.319 6.53418 42.707C6.33105 42.0924 6.22949 41.3568 6.22949 40.5C6.22949 39.6458 6.33236 38.9115 6.53809 38.2969C6.74382 37.6823 7.03678 37.2109 7.41699 36.8828C7.7998 36.5547 8.25814 36.3906 8.79199 36.3906C9.32585 36.3906 9.78288 36.5547 10.1631 36.8828C10.5459 37.2109 10.8402 37.6823 11.0459 38.2969C11.2516 38.9115 11.3545 39.6458 11.3545 40.5C11.3545 41.3568 11.2516 42.0924 11.0459 42.707C10.8428 43.319 10.5498 43.7891 10.167 44.1172C9.78418 44.4453 9.32585 44.6094 8.79199 44.6094ZM8.79199 44.1562C9.44043 44.1562 9.94954 43.8346 10.3193 43.1914C10.6891 42.5456 10.874 41.6484 10.874 40.5C10.874 39.7344 10.7894 39.0781 10.6201 38.5313C10.4535 37.9844 10.2152 37.5664 9.90527 37.2773C9.59538 36.9857 9.22428 36.8398 8.79199 36.8398C8.14355 36.8398 7.63444 37.1628 7.26465 37.8086C6.89486 38.4544 6.70996 39.3516 6.70996 40.5C6.70996 41.2656 6.79329 41.9219 6.95996 42.4687C7.12663 43.013 7.36491 43.431 7.6748 43.7227C7.9873 44.0117 8.3597 44.1562 8.79199 44.1562ZM15.2363 44.6094C14.8092 44.6094 14.4277 44.5195 14.0918 44.3398C13.7585 44.1576 13.4941 43.9076 13.2988 43.5898C13.1061 43.2721 13.0072 42.9089 13.002 42.5H13.4824C13.4928 42.9844 13.6608 43.3815 13.9863 43.6914C14.3118 44.0013 14.7285 44.1562 15.2363 44.1562C15.627 44.1562 15.9707 44.0625 16.2676 43.875C16.5671 43.6849 16.8014 43.4271 16.9707 43.1016C17.14 42.776 17.2233 42.4089 17.2207 42C17.2207 41.5677 17.1296 41.1901 16.9473 40.8672C16.765 40.5443 16.5215 40.2943 16.2168 40.1172C15.9121 39.9401 15.5749 39.8503 15.2051 39.8477C14.9134 39.8477 14.64 39.901 14.3848 40.0078C14.1296 40.112 13.9121 40.2461 13.7324 40.4102L13.1816 40.332L13.6543 36.5H17.4043V36.9531H14.0723L13.7051 39.9492H13.7441C13.9316 39.7826 14.1543 39.6484 14.4121 39.5469C14.6725 39.4427 14.9551 39.3906 15.2598 39.3906C15.7077 39.3906 16.1165 39.5 16.4863 39.7187C16.8587 39.9375 17.1543 40.2422 17.373 40.6328C17.5944 41.0234 17.7038 41.4779 17.7012 41.9961C17.6986 42.4961 17.5918 42.9427 17.3809 43.3359C17.1699 43.7292 16.8783 44.0404 16.5059 44.2695C16.1361 44.4961 15.7129 44.6094 15.2363 44.6094Z" fill="white"/>
<path d="M91.4496 39.517H92.3516V41.299H91.4496V39.517ZM96.0036 35.414H96.9166V41.266H96.0036V35.414ZM88.8536 39.825L88.7436 39.154C89.3816 39.154 90.0636 39.1503 90.7896 39.143C91.5229 39.1283 92.2672 39.1063 93.0226 39.077C93.7779 39.0403 94.5112 38.9817 95.2226 38.901L95.2776 39.495C94.5516 39.5977 93.8109 39.6747 93.0556 39.726C92.3076 39.77 91.5742 39.7993 90.8556 39.814C90.1442 39.8213 89.4769 39.825 88.8536 39.825ZM90.2506 41.629H96.9166V43.697H91.1746V44.819H90.2836V43.081H96.0146V42.278H90.2506V41.629ZM90.2836 44.577H97.2466V45.248H90.2836V44.577ZM94.0236 40.144H96.3006V40.738H94.0236V40.144ZM91.9556 35.601C92.4469 35.601 92.8759 35.6597 93.2426 35.777C93.6092 35.8943 93.8952 36.0667 94.1006 36.294C94.3059 36.5213 94.4086 36.789 94.4086 37.097C94.4086 37.3977 94.3059 37.6617 94.1006 37.889C93.8952 38.109 93.6092 38.2813 93.2426 38.406C92.8759 38.5233 92.4469 38.582 91.9556 38.582C91.4642 38.582 91.0316 38.5233 90.6576 38.406C90.2909 38.2813 90.0049 38.109 89.7996 37.889C89.6016 37.6617 89.5026 37.3977 89.5026 37.097C89.5026 36.789 89.6016 36.5213 89.7996 36.294C90.0049 36.0667 90.2909 35.8943 90.6576 35.777C91.0316 35.6597 91.4642 35.601 91.9556 35.601ZM91.9556 36.228C91.4716 36.228 91.0829 36.305 90.7896 36.459C90.5036 36.613 90.3606 36.8257 90.3606 37.097C90.3606 37.3537 90.5036 37.5627 90.7896 37.724C91.0829 37.878 91.4716 37.955 91.9556 37.955C92.4396 37.955 92.8246 37.878 93.1106 37.724C93.4039 37.5627 93.5506 37.3537 93.5506 37.097C93.5506 36.8257 93.4039 36.613 93.1106 36.459C92.8246 36.305 92.4396 36.228 91.9556 36.228Z" fill="#B3B3B3"/>
<path d="M172.636 41.332H173.549V42.949H172.636V41.332ZM176.816 35.403H177.729V45.358H176.816V35.403ZM177.443 39.627H179.28V40.397H177.443V39.627ZM170.084 43.466L169.941 42.696C170.542 42.696 171.195 42.6923 171.899 42.685C172.61 42.6703 173.336 42.641 174.077 42.597C174.817 42.553 175.532 42.4833 176.222 42.388L176.288 43.059C175.576 43.1837 174.85 43.2753 174.11 43.334C173.376 43.3927 172.665 43.4293 171.976 43.444C171.294 43.4587 170.663 43.466 170.084 43.466ZM170.117 36.613H176.057V37.35H170.117V36.613ZM173.098 37.922C173.56 37.922 173.967 37.999 174.319 38.153C174.671 38.307 174.946 38.5233 175.144 38.802C175.342 39.0733 175.441 39.396 175.441 39.77C175.441 40.1367 175.342 40.4593 175.144 40.738C174.946 41.0167 174.671 41.233 174.319 41.387C173.967 41.5337 173.56 41.607 173.098 41.607C172.636 41.607 172.225 41.5337 171.866 41.387C171.514 41.233 171.239 41.0167 171.041 40.738C170.85 40.4593 170.755 40.1367 170.755 39.77C170.755 39.396 170.85 39.0733 171.041 38.802C171.239 38.5233 171.514 38.307 171.866 38.153C172.225 37.999 172.636 37.922 173.098 37.922ZM173.098 38.637C172.65 38.637 172.291 38.7397 172.02 38.945C171.748 39.1503 171.613 39.4253 171.613 39.77C171.613 40.1073 171.748 40.3787 172.02 40.584C172.291 40.7893 172.65 40.892 173.098 40.892C173.538 40.892 173.893 40.7893 174.165 40.584C174.436 40.3787 174.572 40.1073 174.572 39.77C174.572 39.4253 174.436 39.1503 174.165 38.945C173.893 38.7397 173.538 38.637 173.098 38.637ZM172.636 35.425H173.549V37.097H172.636V35.425Z" fill="#B3B3B3"/>
<path d="M255.374 35.755H256.177V36.316C256.177 36.6973 256.104 37.0567 255.957 37.394C255.81 37.724 255.609 38.0283 255.352 38.307C255.103 38.5857 254.809 38.835 254.472 39.055C254.135 39.275 253.768 39.4583 253.372 39.605C252.983 39.7517 252.584 39.858 252.173 39.924L251.799 39.187C252.166 39.1357 252.521 39.0477 252.866 38.923C253.218 38.7983 253.544 38.648 253.845 38.472C254.146 38.2887 254.41 38.0833 254.637 37.856C254.872 37.6287 255.051 37.3867 255.176 37.13C255.308 36.866 255.374 36.5947 255.374 36.316V35.755ZM255.528 35.755H256.32V36.316C256.32 36.5947 256.386 36.8623 256.518 37.119C256.65 37.3757 256.83 37.6177 257.057 37.845C257.292 38.0723 257.559 38.2777 257.86 38.461C258.161 38.6443 258.483 38.7983 258.828 38.923C259.18 39.0477 259.536 39.1357 259.895 39.187L259.532 39.924C259.121 39.858 258.722 39.7517 258.333 39.605C257.944 39.451 257.578 39.264 257.233 39.044C256.896 38.824 256.599 38.5747 256.342 38.296C256.093 38.0173 255.895 37.713 255.748 37.383C255.601 37.0457 255.528 36.69 255.528 36.316V35.755ZM255.374 41.574H256.276V45.358H255.374V41.574ZM251.348 41.002H260.335V41.761H251.348V41.002Z" fill="#B3B3B3"/>
<path d="M333.788 35.821H340.465V39.198H333.788V35.821ZM339.574 36.547H334.679V38.461H339.574V36.547ZM332.633 40.441H341.62V41.189H332.633V40.441ZM336.67 39.011H337.583V40.727H336.67V39.011ZM333.634 42.212H340.509V45.358H339.596V42.949H333.634V42.212Z" fill="#B3B3B3"/>
<path d="M415.063 35.931H421.465V36.679H415.063V35.931ZM413.919 39.594H422.939V40.342H413.919V39.594ZM420.871 35.931H421.773V36.668C421.773 37.086 421.758 37.548 421.729 38.054C421.7 38.56 421.604 39.1613 421.443 39.858L420.541 39.803C420.702 39.1283 420.798 38.5417 420.827 38.043C420.856 37.537 420.871 37.0787 420.871 36.668V35.931ZM415.03 41.695H421.806V45.226H415.03V41.695ZM420.904 42.421H415.921V44.478H420.904V42.421Z" fill="#B3B3B3"/>
<path d="M496.359 40.573H503.19V41.31H496.359V40.573ZM495.204 43.367H504.224V44.115H495.204V43.367ZM499.241 40.947H500.154V43.708H499.241V40.947ZM496.359 36.217H503.091V36.965H497.283V40.848H496.359V36.217ZM496.997 38.351H502.871V39.088H496.997V38.351Z" fill="#FFCA29"/>
<path d="M579.284 35.766C579.783 35.766 580.223 35.8613 580.604 36.052C580.993 36.2353 581.297 36.492 581.517 36.822C581.737 37.152 581.847 37.537 581.847 37.977C581.847 38.4097 581.737 38.7947 581.517 39.132C581.297 39.462 580.993 39.7187 580.604 39.902C580.223 40.0853 579.783 40.177 579.284 40.177C578.793 40.177 578.353 40.0853 577.964 39.902C577.576 39.7187 577.268 39.462 577.04 39.132C576.82 38.7947 576.71 38.4097 576.71 37.977C576.71 37.537 576.82 37.152 577.04 36.822C577.268 36.492 577.576 36.2353 577.964 36.052C578.353 35.8613 578.793 35.766 579.284 35.766ZM579.284 36.525C578.962 36.525 578.672 36.5873 578.415 36.712C578.166 36.8293 577.968 36.998 577.821 37.218C577.675 37.438 577.601 37.691 577.601 37.977C577.601 38.263 577.675 38.516 577.821 38.736C577.968 38.9487 578.166 39.1173 578.415 39.242C578.672 39.3667 578.962 39.429 579.284 39.429C579.607 39.429 579.893 39.3667 580.142 39.242C580.399 39.1173 580.601 38.9487 580.747 38.736C580.894 38.516 580.967 38.263 580.967 37.977C580.967 37.691 580.894 37.438 580.747 37.218C580.601 36.998 580.399 36.8293 580.142 36.712C579.893 36.5873 579.607 36.525 579.284 36.525ZM583.728 35.403H584.641V40.496H583.728V35.403ZM578.206 40.991H584.641V43.4H579.119V44.896H578.239V42.718H583.739V41.717H578.206V40.991ZM578.239 44.489H584.982V45.226H578.239V44.489Z" fill="#FFCA29"/>
</g>
<g clip-path="url(#clip2_632_4175)">
<rect y="60.5" width="24" height="24" rx="4" fill="#FFA91E"/>
<path d="M9.39551 69V77H8.90723V69.5156H8.86035L7.06348 70.707V70.1836L8.84473 69H9.39551ZM14.3516 77.1094C13.8672 77.1094 13.431 77.013 13.043 76.8203C12.6549 76.625 12.3477 76.362 12.1211 76.0312C11.8971 75.7005 11.7865 75.3294 11.7891 74.918C11.7865 74.5924 11.8555 74.2865 11.9961 74C12.1393 73.7135 12.3346 73.4701 12.582 73.2695C12.8294 73.0664 13.112 72.931 13.4297 72.8633V72.8281C13.026 72.7005 12.6966 72.4648 12.4414 72.1211C12.1888 71.7773 12.0625 71.388 12.0625 70.9531C12.0625 70.5651 12.1628 70.2161 12.3633 69.9062C12.5664 69.5937 12.8411 69.3464 13.1875 69.1641C13.5339 68.9818 13.9219 68.8906 14.3516 68.8906C14.7734 68.8906 15.1576 68.9818 15.5039 69.1641C15.8503 69.3437 16.125 69.5898 16.3281 69.9023C16.5339 70.2122 16.6367 70.5625 16.6367 70.9531C16.6367 71.3854 16.5104 71.7747 16.2578 72.1211C16.0078 72.4648 15.6797 72.7005 15.2734 72.8281V72.8633C15.5885 72.9284 15.8685 73.0625 16.1133 73.2656C16.3607 73.4661 16.5547 73.7109 16.6953 74C16.8385 74.2865 16.9115 74.5924 16.9141 74.918C16.9115 75.3294 16.7969 75.7005 16.5703 76.0312C16.3464 76.362 16.0404 76.625 15.6523 76.8203C15.2669 77.013 14.8333 77.1094 14.3516 77.1094ZM14.3516 76.6562C14.75 76.6562 15.1055 76.5781 15.418 76.4219C15.7305 76.2656 15.9766 76.0547 16.1563 75.7891C16.3359 75.5208 16.4271 75.2214 16.4297 74.8906C16.4271 74.5547 16.3333 74.25 16.1484 73.9766C15.9661 73.7031 15.7188 73.4857 15.4063 73.3242C15.0938 73.1628 14.7422 73.082 14.3516 73.082C13.9583 73.082 13.6042 73.1628 13.2891 73.3242C12.9766 73.4857 12.7279 73.7031 12.543 73.9766C12.3607 74.25 12.2708 74.5547 12.2734 74.8906C12.2708 75.2214 12.3594 75.5208 12.5391 75.7891C12.7214 76.0547 12.9688 76.2656 13.2813 76.4219C13.5964 76.5781 13.9531 76.6562 14.3516 76.6562ZM14.3516 72.6602C14.6875 72.6602 14.9909 72.5846 15.2617 72.4336C15.5352 72.2826 15.7526 72.0794 15.9141 71.8242C16.0755 71.569 16.1563 71.2852 16.1563 70.9727C16.1563 70.6602 16.0755 70.3815 15.9141 70.1367C15.7552 69.8893 15.5391 69.6953 15.2656 69.5547C14.9948 69.4115 14.6901 69.3398 14.3516 69.3398C14.0104 69.3398 13.7031 69.4115 13.4297 69.5547C13.1563 69.6953 12.9401 69.8893 12.7813 70.1367C12.6224 70.3815 12.543 70.6602 12.543 70.9727C12.543 71.2852 12.6224 71.569 12.7813 71.8242C12.9427 72.0794 13.1602 72.2826 13.4336 72.4336C13.707 72.5846 14.013 72.6602 14.3516 72.6602Z" fill="white"/>
<path d="M87.395 77V76.2969L90.0356 73.4062C90.3455 73.0677 90.6007 72.7734 90.8013 72.5234C91.0018 72.2708 91.1502 72.0339 91.2466 71.8125C91.3455 71.5885 91.395 71.3542 91.395 71.1094C91.395 70.8281 91.3273 70.5846 91.1919 70.3789C91.0591 70.1732 90.8768 70.0143 90.645 69.9023C90.4132 69.7904 90.1528 69.7344 89.8638 69.7344C89.5565 69.7344 89.2882 69.7982 89.0591 69.9258C88.8325 70.0508 88.6567 70.2266 88.5317 70.4531C88.4093 70.6797 88.3481 70.9453 88.3481 71.25H87.4263C87.4263 70.7812 87.5343 70.3698 87.7505 70.0156C87.9666 69.6615 88.2609 69.3854 88.6333 69.1875C89.0083 68.9896 89.4289 68.8906 89.895 68.8906C90.3638 68.8906 90.7791 68.9896 91.1411 69.1875C91.5031 69.3854 91.7869 69.6523 91.9927 69.9883C92.1984 70.3242 92.3013 70.6979 92.3013 71.1094C92.3013 71.4036 92.2479 71.6914 92.1411 71.9727C92.0369 72.2513 91.8547 72.5625 91.5942 72.9062C91.3364 73.2474 90.9784 73.6641 90.52 74.1562L88.7231 76.0781V76.1406H92.4419V77H87.395ZM96.6177 77.1094C96.0812 77.1094 95.6073 77.0143 95.1958 76.8242C94.7869 76.6315 94.4679 76.3672 94.2388 76.0312C94.0096 75.6927 93.8963 75.3073 93.8989 74.875C93.8963 74.5365 93.9627 74.224 94.0981 73.9375C94.2336 73.6484 94.4185 73.4076 94.6528 73.2148C94.8898 73.0195 95.1541 72.8958 95.4458 72.8438V72.7969C95.063 72.6979 94.7583 72.4831 94.5317 72.1523C94.3052 71.819 94.1932 71.4401 94.1958 71.0156C94.1932 70.6094 94.2961 70.2461 94.5044 69.9258C94.7127 69.6055 94.9992 69.3529 95.3638 69.168C95.731 68.9831 96.1489 68.8906 96.6177 68.8906C97.0812 68.8906 97.4953 68.9831 97.8599 69.168C98.2244 69.3529 98.5109 69.6055 98.7192 69.9258C98.9302 70.2461 99.0369 70.6094 99.0396 71.0156C99.0369 71.4401 98.9211 71.819 98.6919 72.1523C98.4653 72.4831 98.1646 72.6979 97.7896 72.7969V72.8438C98.0786 72.8958 98.339 73.0195 98.5708 73.2148C98.8026 73.4076 98.9875 73.6484 99.1255 73.9375C99.2635 74.224 99.3338 74.5365 99.3364 74.875C99.3338 75.3073 99.2166 75.6927 98.9849 76.0312C98.7557 76.3672 98.4367 76.6315 98.0278 76.8242C97.6216 77.0143 97.1515 77.1094 96.6177 77.1094ZM96.6177 76.25C96.9797 76.25 97.2922 76.1914 97.5552 76.0742C97.8182 75.957 98.0213 75.7917 98.1646 75.5781C98.3078 75.3646 98.3807 75.1146 98.3833 74.8281C98.3807 74.526 98.3026 74.2591 98.1489 74.0273C97.9953 73.7956 97.7856 73.6133 97.52 73.4805C97.257 73.3477 96.9562 73.2812 96.6177 73.2812C96.2765 73.2812 95.9718 73.3477 95.7036 73.4805C95.438 73.6133 95.2284 73.7956 95.0747 74.0273C94.9237 74.2591 94.8494 74.526 94.8521 74.8281C94.8494 75.1146 94.9185 75.3646 95.0591 75.5781C95.2023 75.7917 95.4067 75.957 95.6724 76.0742C95.938 76.1914 96.2531 76.25 96.6177 76.25ZM96.6177 72.4531C96.9041 72.4531 97.158 72.3958 97.3794 72.2812C97.6034 72.1667 97.7791 72.0065 97.9067 71.8008C98.0343 71.5951 98.0994 71.3542 98.1021 71.0781C98.0994 70.8073 98.0356 70.5716 97.9106 70.3711C97.7856 70.168 97.6125 70.0117 97.3911 69.9023C97.1698 69.7904 96.9119 69.7344 96.6177 69.7344C96.3182 69.7344 96.0565 69.7904 95.8325 69.9023C95.6086 70.0117 95.4354 70.168 95.313 70.3711C95.1906 70.5716 95.1307 70.8073 95.1333 71.0781C95.1307 71.3542 95.1919 71.5951 95.3169 71.8008C95.4445 72.0065 95.6203 72.1667 95.8442 72.2812C96.0682 72.3958 96.326 72.4531 96.6177 72.4531Z" fill="#616161"/>
<path d="M168.637 77V76.2969L171.278 73.4062C171.588 73.0677 171.843 72.7734 172.043 72.5234C172.244 72.2708 172.392 72.0339 172.489 71.8125C172.588 71.5885 172.637 71.3542 172.637 71.1094C172.637 70.8281 172.569 70.5846 172.434 70.3789C172.301 70.1732 172.119 70.0143 171.887 69.9023C171.655 69.7904 171.395 69.7344 171.106 69.7344C170.799 69.7344 170.53 69.7982 170.301 69.9258C170.075 70.0508 169.899 70.2266 169.774 70.4531C169.652 70.6797 169.59 70.9453 169.59 71.25H168.668C168.668 70.7812 168.777 70.3698 168.993 70.0156C169.209 69.6615 169.503 69.3854 169.875 69.1875C170.25 68.9896 170.671 68.8906 171.137 68.8906C171.606 68.8906 172.021 68.9896 172.383 69.1875C172.745 69.3854 173.029 69.6523 173.235 69.9883C173.441 70.3242 173.543 70.6979 173.543 71.1094C173.543 71.4036 173.49 71.6914 173.383 71.9727C173.279 72.2513 173.097 72.5625 172.836 72.9062C172.579 73.2474 172.221 73.6641 171.762 74.1562L169.965 76.0781V76.1406H173.684V77H168.637ZM177.844 68.8906C178.172 68.8932 178.5 68.9557 178.829 69.0781C179.157 69.2005 179.456 69.4036 179.727 69.6875C179.998 69.9687 180.215 70.3529 180.379 70.8398C180.543 71.3268 180.625 71.9375 180.625 72.6719C180.625 73.3828 180.558 74.0143 180.422 74.5664C180.29 75.1159 180.097 75.5794 179.844 75.957C179.594 76.3346 179.29 76.6211 178.93 76.8164C178.573 77.0117 178.17 77.1094 177.719 77.1094C177.271 77.1094 176.872 77.0208 176.52 76.8437C176.171 76.6641 175.885 76.4154 175.661 76.0977C175.439 75.7773 175.297 75.4062 175.235 74.9844H176.188C176.274 75.3516 176.444 75.6549 176.7 75.8945C176.958 76.1315 177.297 76.25 177.719 76.25C178.336 76.25 178.823 75.9805 179.18 75.4414C179.54 74.9023 179.719 74.1406 179.719 73.1562H179.657C179.511 73.375 179.338 73.5638 179.137 73.7227C178.937 73.8815 178.714 74.0039 178.469 74.0898C178.224 74.1758 177.964 74.2188 177.688 74.2188C177.23 74.2188 176.809 74.1055 176.426 73.8789C176.046 73.6497 175.741 73.3359 175.512 72.9375C175.286 72.5365 175.172 72.0781 175.172 71.5625C175.172 71.0729 175.282 70.625 175.5 70.2187C175.722 69.8099 176.032 69.4844 176.43 69.2422C176.831 69 177.303 68.8828 177.844 68.8906ZM177.844 69.75C177.516 69.75 177.221 69.832 176.958 69.9961C176.697 70.1576 176.49 70.3763 176.336 70.6523C176.185 70.9258 176.11 71.2292 176.11 71.5625C176.11 71.8958 176.183 72.1992 176.329 72.4727C176.477 72.7435 176.679 72.9596 176.934 73.1211C177.192 73.2799 177.485 73.3594 177.813 73.3594C178.06 73.3594 178.291 73.3112 178.504 73.2148C178.718 73.1159 178.904 72.9818 179.063 72.8125C179.224 72.6406 179.351 72.4466 179.442 72.2305C179.533 72.0117 179.579 71.7839 179.579 71.5469C179.579 71.2344 179.503 70.9414 179.352 70.668C179.204 70.3945 178.998 70.1732 178.735 70.0039C178.474 69.8346 178.178 69.75 177.844 69.75Z" fill="#616161"/>
<path d="M252.449 77.1094C251.934 77.1094 251.474 77.0208 251.07 76.8437C250.669 76.6667 250.35 76.4206 250.113 76.1055C249.879 75.7878 249.751 75.4193 249.73 75H250.715C250.736 75.2578 250.824 75.4805 250.98 75.668C251.137 75.8529 251.341 75.9961 251.594 76.0977C251.846 76.1992 252.126 76.25 252.434 76.25C252.777 76.25 253.082 76.1901 253.348 76.0703C253.613 75.9505 253.822 75.7839 253.973 75.5703C254.124 75.3568 254.199 75.1094 254.199 74.8281C254.199 74.5339 254.126 74.2747 253.98 74.0508C253.835 73.8242 253.621 73.6471 253.34 73.5195C253.059 73.3919 252.715 73.3281 252.309 73.3281H251.668V72.4687H252.309C252.626 72.4687 252.905 72.4115 253.145 72.2969C253.387 72.1823 253.576 72.0208 253.711 71.8125C253.849 71.6042 253.918 71.3594 253.918 71.0781C253.918 70.8073 253.858 70.5716 253.738 70.3711C253.618 70.1706 253.449 70.0143 253.23 69.9023C253.014 69.7904 252.759 69.7344 252.465 69.7344C252.189 69.7344 251.928 69.7852 251.684 69.8867C251.441 69.9857 251.243 70.1302 251.09 70.3203C250.936 70.5078 250.853 70.7344 250.84 71H249.902C249.918 70.5807 250.044 70.2135 250.281 69.8984C250.518 69.5807 250.828 69.3333 251.211 69.1562C251.596 68.9792 252.02 68.8906 252.48 68.8906C252.975 68.8906 253.4 68.9909 253.754 69.1914C254.108 69.3893 254.38 69.651 254.57 69.9766C254.76 70.3021 254.855 70.6536 254.855 71.0313C254.855 71.4818 254.737 71.8659 254.5 72.1836C254.266 72.5013 253.947 72.7214 253.543 72.8438V72.9062C254.048 72.9896 254.443 73.2044 254.727 73.5508C255.01 73.8945 255.152 74.3203 255.152 74.8281C255.152 75.263 255.034 75.6536 254.797 76C254.563 76.3437 254.242 76.6146 253.836 76.8125C253.43 77.0104 252.967 77.1094 252.449 77.1094ZM259.359 77.1094C258.771 77.1094 258.27 76.9492 257.855 76.6289C257.441 76.306 257.125 75.8385 256.906 75.2266C256.688 74.612 256.578 73.8698 256.578 73C256.578 72.1354 256.688 71.3971 256.906 70.7852C257.128 70.1706 257.445 69.7018 257.859 69.3789C258.276 69.0534 258.776 68.8906 259.359 68.8906C259.943 68.8906 260.441 69.0534 260.855 69.3789C261.272 69.7018 261.59 70.1706 261.809 70.7852C262.03 71.3971 262.141 72.1354 262.141 73C262.141 73.8698 262.031 74.612 261.813 75.2266C261.594 75.8385 261.277 76.306 260.863 76.6289C260.449 76.9492 259.948 77.1094 259.359 77.1094ZM259.359 76.25C259.943 76.25 260.396 75.9687 260.719 75.4062C261.042 74.8437 261.203 74.0417 261.203 73C261.203 72.3073 261.129 71.7174 260.98 71.2305C260.835 70.7435 260.624 70.3724 260.348 70.1172C260.074 69.862 259.745 69.7344 259.359 69.7344C258.781 69.7344 258.329 70.0195 258.004 70.5898C257.678 71.1576 257.516 71.9609 257.516 73C257.516 73.6927 257.589 74.2812 257.734 74.7656C257.88 75.25 258.09 75.6185 258.363 75.8711C258.639 76.1237 258.971 76.25 259.359 76.25Z" fill="#616161"/>
<path d="M338.227 69V77H337.258V70.0156H337.211L335.258 71.3125V70.3281L337.258 69H338.227Z" fill="#B3B3B3"/>
<path d="M415.927 77V76.2969L418.567 73.4062C418.877 73.0677 419.132 72.7734 419.333 72.5234C419.534 72.2708 419.682 72.0339 419.778 71.8125C419.877 71.5885 419.927 71.3542 419.927 71.1094C419.927 70.8281 419.859 70.5846 419.724 70.3789C419.591 70.1732 419.409 70.0143 419.177 69.9023C418.945 69.7904 418.685 69.7344 418.396 69.7344C418.088 69.7344 417.82 69.7982 417.591 69.9258C417.364 70.0508 417.188 70.2266 417.063 70.4531C416.941 70.6797 416.88 70.9453 416.88 71.25H415.958C415.958 70.7812 416.066 70.3698 416.282 70.0156C416.498 69.6615 416.793 69.3854 417.165 69.1875C417.54 68.9896 417.961 68.8906 418.427 68.8906C418.896 68.8906 419.311 68.9896 419.673 69.1875C420.035 69.3854 420.319 69.6523 420.524 69.9883C420.73 70.3242 420.833 70.6979 420.833 71.1094C420.833 71.4036 420.78 71.6914 420.673 71.9727C420.569 72.2513 420.386 72.5625 420.126 72.9062C419.868 73.2474 419.51 73.6641 419.052 74.1562L417.255 76.0781V76.1406H420.974V77H415.927Z" fill="#B3B3B3"/>
<path d="M499.743 77.1094C499.228 77.1094 498.768 77.0208 498.364 76.8437C497.963 76.6667 497.644 76.4206 497.407 76.1055C497.173 75.7878 497.045 75.4193 497.024 75H498.009C498.03 75.2578 498.118 75.4805 498.274 75.668C498.431 75.8529 498.635 75.9961 498.888 76.0977C499.14 76.1992 499.42 76.25 499.728 76.25C500.071 76.25 500.376 76.1901 500.642 76.0703C500.907 75.9505 501.116 75.7839 501.267 75.5703C501.418 75.3568 501.493 75.1094 501.493 74.8281C501.493 74.5339 501.42 74.2747 501.274 74.0508C501.129 73.8242 500.915 73.6471 500.634 73.5195C500.353 73.3919 500.009 73.3281 499.603 73.3281H498.962V72.4687H499.603C499.92 72.4687 500.199 72.4115 500.438 72.2969C500.681 72.1823 500.869 72.0208 501.005 71.8125C501.143 71.6042 501.212 71.3594 501.212 71.0781C501.212 70.8073 501.152 70.5716 501.032 70.3711C500.912 70.1706 500.743 70.0143 500.524 69.9023C500.308 69.7904 500.053 69.7344 499.759 69.7344C499.483 69.7344 499.222 69.7852 498.978 69.8867C498.735 69.9857 498.537 70.1302 498.384 70.3203C498.23 70.5078 498.147 70.7344 498.134 71H497.196C497.212 70.5807 497.338 70.2135 497.575 69.8984C497.812 69.5807 498.122 69.3333 498.505 69.1562C498.89 68.9792 499.313 68.8906 499.774 68.8906C500.269 68.8906 500.694 68.9909 501.048 69.1914C501.402 69.3893 501.674 69.651 501.864 69.9766C502.054 70.3021 502.149 70.6536 502.149 71.0313C502.149 71.4818 502.031 71.8659 501.794 72.1836C501.56 72.5013 501.241 72.7214 500.837 72.8438V72.9062C501.342 72.9896 501.737 73.2044 502.021 73.5508C502.304 73.8945 502.446 74.3203 502.446 74.8281C502.446 75.263 502.328 75.6536 502.091 76C501.856 76.3437 501.536 76.6146 501.13 76.8125C500.724 77.0104 500.261 77.1094 499.743 77.1094Z" fill="#FFCA29"/>
<path d="M578.112 75.3594V74.5625L581.627 69H582.206V70.2344H581.815L579.159 74.4375V74.5H583.893V75.3594H578.112ZM581.877 77V75.1172V74.7461V69H582.799V77H581.877Z" fill="#FFCA29"/>
</g>
<g clip-path="url(#clip3_632_4175)">
<rect y="93" width="24" height="24" rx="4" fill="#FFA91E"/>
<path d="M9.44922 101.5V109.5H8.96094V102.016H8.91406L7.11719 103.207V102.684L8.89844 101.5H9.44922ZM14.2842 101.391C14.6201 101.391 14.9391 101.462 15.2412 101.605C15.5433 101.749 15.8102 101.97 16.042 102.27C16.2764 102.566 16.46 102.952 16.5928 103.426C16.7282 103.897 16.7959 104.465 16.7959 105.129C16.7959 105.725 16.7477 106.293 16.6514 106.832C16.5576 107.368 16.4079 107.846 16.2021 108.266C15.9964 108.682 15.7282 109.01 15.3975 109.25C15.0667 109.49 14.6644 109.609 14.1904 109.609C13.7764 109.609 13.4131 109.52 13.1006 109.34C12.7881 109.16 12.5368 108.911 12.3467 108.594C12.1592 108.273 12.0459 107.904 12.0068 107.484H12.4912C12.5459 107.971 12.7204 108.372 13.0146 108.687C13.3089 109 13.7008 109.156 14.1904 109.156C14.8805 109.156 15.4092 108.816 15.7764 108.137C16.1436 107.457 16.3271 106.484 16.3271 105.219H16.2842C16.18 105.469 16.0251 105.69 15.8193 105.883C15.6162 106.073 15.3805 106.221 15.1123 106.328C14.8441 106.435 14.5615 106.488 14.2646 106.488C13.8298 106.488 13.4326 106.378 13.0732 106.156C12.7139 105.935 12.4274 105.632 12.2139 105.246C12.0003 104.861 11.8936 104.424 11.8936 103.938C11.8936 103.479 11.9925 103.056 12.1904 102.668C12.391 102.28 12.6696 101.97 13.0264 101.738C13.3857 101.504 13.805 101.388 14.2842 101.391ZM14.2842 101.844C13.917 101.844 13.5889 101.937 13.2998 102.125C13.0133 102.312 12.7868 102.565 12.6201 102.883C12.4561 103.201 12.374 103.552 12.374 103.938C12.374 104.331 12.4587 104.686 12.6279 105.004C12.7998 105.319 13.0316 105.57 13.3232 105.758C13.6175 105.943 13.9482 106.035 14.3154 106.035C14.6019 106.035 14.8675 105.978 15.1123 105.863C15.3571 105.746 15.5667 105.586 15.7412 105.383C15.9183 105.177 16.0485 104.944 16.1318 104.684C16.2152 104.421 16.236 104.146 16.1943 103.859C16.137 103.443 16.0199 103.085 15.8428 102.785C15.6683 102.483 15.4469 102.251 15.1787 102.09C14.9131 101.926 14.6149 101.844 14.2842 101.844Z" fill="white"/>
<path d="M93.2681 109.609C92.8097 109.609 92.397 109.518 92.0298 109.336C91.6626 109.154 91.3683 108.904 91.147 108.586C90.9256 108.268 90.8045 107.906 90.7837 107.5H91.7212C91.7576 107.862 91.9217 108.161 92.2134 108.398C92.5076 108.633 92.8592 108.75 93.2681 108.75C93.5962 108.75 93.8879 108.673 94.1431 108.52C94.4009 108.366 94.6027 108.155 94.7485 107.887C94.897 107.616 94.9712 107.31 94.9712 106.969C94.9712 106.62 94.8944 106.309 94.7407 106.035C94.5897 105.759 94.3813 105.542 94.1157 105.383C93.8501 105.224 93.5467 105.143 93.2056 105.141C92.9608 105.138 92.7095 105.176 92.4517 105.254C92.1938 105.329 91.9816 105.427 91.8149 105.547L90.9087 105.437L91.3931 101.5H95.5493V102.359H92.2056L91.9243 104.719H91.9712C92.1353 104.589 92.341 104.48 92.5884 104.395C92.8358 104.309 93.0936 104.266 93.3618 104.266C93.8514 104.266 94.2876 104.383 94.6704 104.617C95.0558 104.849 95.3579 105.167 95.5767 105.57C95.798 105.974 95.9087 106.435 95.9087 106.953C95.9087 107.464 95.7941 107.919 95.5649 108.32C95.3384 108.719 95.0259 109.034 94.6274 109.266C94.229 109.495 93.7759 109.609 93.2681 109.609Z" fill="#B3B3B3"/>
<path d="M174.624 109.609C174.295 109.604 173.967 109.542 173.639 109.422C173.311 109.302 173.012 109.1 172.741 108.816C172.47 108.53 172.252 108.143 172.088 107.656C171.924 107.167 171.842 106.552 171.842 105.812C171.842 105.104 171.909 104.477 172.042 103.93C172.174 103.38 172.367 102.918 172.62 102.543C172.872 102.165 173.177 101.879 173.534 101.684C173.893 101.488 174.298 101.391 174.749 101.391C175.196 101.391 175.595 101.48 175.944 101.66C176.295 101.837 176.582 102.085 176.803 102.402C177.025 102.72 177.168 103.086 177.233 103.5H176.28C176.191 103.141 176.019 102.842 175.764 102.605C175.509 102.368 175.17 102.25 174.749 102.25C174.129 102.25 173.64 102.52 173.284 103.059C172.93 103.598 172.751 104.354 172.749 105.328H172.811C172.957 105.107 173.13 104.918 173.331 104.762C173.534 104.603 173.758 104.48 174.002 104.395C174.247 104.309 174.506 104.266 174.78 104.266C175.238 104.266 175.657 104.38 176.038 104.609C176.418 104.836 176.722 105.15 176.952 105.551C177.181 105.949 177.295 106.406 177.295 106.922C177.295 107.417 177.185 107.87 176.963 108.281C176.742 108.69 176.431 109.016 176.03 109.258C175.631 109.497 175.163 109.615 174.624 109.609ZM174.624 108.75C174.952 108.75 175.246 108.668 175.506 108.504C175.769 108.34 175.976 108.12 176.127 107.844C176.281 107.568 176.358 107.26 176.358 106.922C176.358 106.591 176.284 106.29 176.135 106.02C175.989 105.746 175.788 105.529 175.53 105.367C175.275 105.206 174.983 105.125 174.655 105.125C174.407 105.125 174.177 105.174 173.963 105.273C173.75 105.37 173.562 105.503 173.401 105.672C173.242 105.841 173.117 106.035 173.026 106.254C172.935 106.47 172.889 106.698 172.889 106.937C172.889 107.255 172.963 107.552 173.112 107.828C173.263 108.104 173.469 108.327 173.729 108.496C173.992 108.665 174.29 108.75 174.624 108.75Z" fill="#B3B3B3"/>
<path d="M253.793 109.5L257.372 102.422V102.359H253.247V101.5H258.372V102.406L254.809 109.5H253.793Z" fill="#B3B3B3"/>
<rect x="325.143" y="93" width="24" height="24" rx="4" fill="#FFA91E"/>
<path d="M337.144 109.609C336.608 109.609 336.134 109.514 335.722 109.324C335.313 109.132 334.994 108.867 334.765 108.531C334.536 108.193 334.423 107.807 334.425 107.375C334.423 107.036 334.489 106.724 334.625 106.437C334.76 106.148 334.945 105.908 335.179 105.715C335.416 105.52 335.681 105.396 335.972 105.344V105.297C335.589 105.198 335.285 104.983 335.058 104.652C334.832 104.319 334.72 103.94 334.722 103.516C334.72 103.109 334.822 102.746 335.031 102.426C335.239 102.105 335.526 101.853 335.89 101.668C336.257 101.483 336.675 101.391 337.144 101.391C337.608 101.391 338.022 101.483 338.386 101.668C338.751 101.853 339.037 102.105 339.246 102.426C339.457 102.746 339.563 103.109 339.566 103.516C339.563 103.94 339.447 104.319 339.218 104.652C338.992 104.983 338.691 105.198 338.316 105.297V105.344C338.605 105.396 338.865 105.52 339.097 105.715C339.329 105.908 339.514 106.148 339.652 106.437C339.79 106.724 339.86 107.036 339.863 107.375C339.86 107.807 339.743 108.193 339.511 108.531C339.282 108.867 338.963 109.132 338.554 109.324C338.148 109.514 337.678 109.609 337.144 109.609ZM337.144 108.75C337.506 108.75 337.819 108.691 338.082 108.574C338.345 108.457 338.548 108.292 338.691 108.078C338.834 107.865 338.907 107.615 338.91 107.328C338.907 107.026 338.829 106.759 338.675 106.527C338.522 106.296 338.312 106.113 338.046 105.98C337.783 105.848 337.483 105.781 337.144 105.781C336.803 105.781 336.498 105.848 336.23 105.98C335.964 106.113 335.755 106.296 335.601 106.527C335.45 106.759 335.376 107.026 335.378 107.328C335.376 107.615 335.445 107.865 335.585 108.078C335.729 108.292 335.933 108.457 336.199 108.574C336.464 108.691 336.779 108.75 337.144 108.75ZM337.144 104.953C337.431 104.953 337.684 104.896 337.906 104.781C338.13 104.667 338.306 104.507 338.433 104.301C338.561 104.095 338.626 103.854 338.628 103.578C338.626 103.307 338.562 103.072 338.437 102.871C338.312 102.668 338.139 102.512 337.917 102.402C337.696 102.29 337.438 102.234 337.144 102.234C336.845 102.234 336.583 102.29 336.359 102.402C336.135 102.512 335.962 102.668 335.839 102.871C335.717 103.072 335.657 103.307 335.66 103.578C335.657 103.854 335.718 104.095 335.843 104.301C335.971 104.507 336.147 104.667 336.371 104.781C336.595 104.896 336.852 104.953 337.144 104.953Z" fill="white"/>
<path d="M418.372 101.391C418.7 101.393 419.028 101.456 419.356 101.578C419.684 101.701 419.984 101.904 420.254 102.187C420.525 102.469 420.743 102.853 420.907 103.34C421.071 103.827 421.153 104.437 421.153 105.172C421.153 105.883 421.085 106.514 420.95 107.066C420.817 107.616 420.624 108.079 420.372 108.457C420.122 108.835 419.817 109.121 419.458 109.316C419.101 109.512 418.697 109.609 418.247 109.609C417.799 109.609 417.399 109.521 417.047 109.344C416.698 109.164 416.412 108.915 416.188 108.598C415.967 108.277 415.825 107.906 415.762 107.484H416.715C416.801 107.852 416.972 108.155 417.227 108.395C417.485 108.632 417.825 108.75 418.247 108.75C418.864 108.75 419.351 108.48 419.708 107.941C420.067 107.402 420.247 106.641 420.247 105.656H420.184C420.038 105.875 419.865 106.064 419.665 106.223C419.464 106.382 419.241 106.504 418.997 106.59C418.752 106.676 418.491 106.719 418.215 106.719C417.757 106.719 417.336 106.605 416.954 106.379C416.573 106.15 416.269 105.836 416.04 105.437C415.813 105.036 415.7 104.578 415.7 104.062C415.7 103.573 415.809 103.125 416.028 102.719C416.249 102.31 416.559 101.984 416.958 101.742C417.359 101.5 417.83 101.383 418.372 101.391ZM418.372 102.25C418.043 102.25 417.748 102.332 417.485 102.496C417.224 102.658 417.017 102.876 416.864 103.152C416.713 103.426 416.637 103.729 416.637 104.062C416.637 104.396 416.71 104.699 416.856 104.973C417.004 105.243 417.206 105.46 417.461 105.621C417.719 105.78 418.012 105.859 418.34 105.859C418.588 105.859 418.818 105.811 419.032 105.715C419.245 105.616 419.431 105.482 419.59 105.312C419.752 105.141 419.878 104.947 419.969 104.73C420.06 104.512 420.106 104.284 420.106 104.047C420.106 103.734 420.03 103.441 419.879 103.168C419.731 102.895 419.525 102.673 419.262 102.504C419.002 102.335 418.705 102.25 418.372 102.25Z" fill="#B3B3B3"/>
<path d="M497.36 101.5V109.5H496.392V102.516H496.345L494.392 103.812V102.828L496.392 101.5H497.36ZM502.271 109.609C501.682 109.609 501.181 109.449 500.767 109.129C500.353 108.806 500.036 108.339 499.817 107.727C499.599 107.112 499.489 106.37 499.489 105.5C499.489 104.635 499.599 103.897 499.817 103.285C500.039 102.671 500.356 102.202 500.771 101.879C501.187 101.553 501.687 101.391 502.271 101.391C502.854 101.391 503.353 101.553 503.767 101.879C504.183 102.202 504.501 102.671 504.72 103.285C504.941 103.897 505.052 104.635 505.052 105.5C505.052 106.37 504.942 107.112 504.724 107.727C504.505 108.339 504.188 108.806 503.774 109.129C503.36 109.449 502.859 109.609 502.271 109.609ZM502.271 108.75C502.854 108.75 503.307 108.469 503.63 107.906C503.953 107.344 504.114 106.542 504.114 105.5C504.114 104.807 504.04 104.217 503.892 103.73C503.746 103.243 503.535 102.872 503.259 102.617C502.985 102.362 502.656 102.234 502.271 102.234C501.692 102.234 501.241 102.52 500.915 103.09C500.59 103.658 500.427 104.461 500.427 105.5C500.427 106.193 500.5 106.781 500.646 107.266C500.791 107.75 501.001 108.118 501.274 108.371C501.55 108.624 501.882 108.75 502.271 108.75Z" fill="#FFCA29"/>
<path d="M579.527 101.5V109.5H578.559V102.516H578.512L576.559 103.812V102.828L578.559 101.5H579.527ZM584.641 101.5V109.5H583.672V102.516H583.625L581.672 103.812V102.828L583.672 101.5H584.641Z" fill="#FFCA29"/>
</g>
<g clip-path="url(#clip4_632_4175)">
<rect y="125.5" width="24" height="24" rx="4" fill="#FFA91E"/>
<path d="M6.25537 142V141.629L8.84522 138.645C9.21501 138.217 9.50798 137.855 9.72412 137.559C9.94027 137.262 10.0952 136.993 10.189 136.754C10.2827 136.514 10.3296 136.264 10.3296 136.004C10.3296 135.678 10.2528 135.391 10.0991 135.141C9.94808 134.888 9.74105 134.691 9.47803 134.551C9.21761 134.41 8.92074 134.34 8.5874 134.34C8.23844 134.34 7.93245 134.417 7.66943 134.57C7.40641 134.724 7.20068 134.932 7.05225 135.195C6.90641 135.458 6.8335 135.754 6.8335 136.082H6.36084C6.36084 135.668 6.45719 135.296 6.6499 134.965C6.84261 134.634 7.10693 134.372 7.44287 134.18C7.78141 133.987 8.16683 133.891 8.59912 133.891C9.0236 133.891 9.4012 133.983 9.73193 134.168C10.0627 134.353 10.3231 134.605 10.5132 134.926C10.7033 135.243 10.7983 135.603 10.7983 136.004C10.7983 136.298 10.7476 136.582 10.646 136.855C10.547 137.126 10.3765 137.43 10.1343 137.766C9.89209 138.099 9.55745 138.51 9.13037 139L6.9585 141.504V141.547H11.1577V142H6.25537ZM15.3823 142.109C14.8485 142.109 14.3901 141.945 14.0073 141.617C13.6245 141.289 13.3302 140.819 13.1245 140.207C12.9214 139.592 12.8198 138.857 12.8198 138C12.8198 137.146 12.9227 136.411 13.1284 135.797C13.3341 135.182 13.6271 134.711 14.0073 134.383C14.3901 134.055 14.8485 133.891 15.3823 133.891C15.9162 133.891 16.3732 134.055 16.7534 134.383C17.1362 134.711 17.4305 135.182 17.6362 135.797C17.842 136.411 17.9448 137.146 17.9448 138C17.9448 138.857 17.842 139.592 17.6362 140.207C17.4331 140.819 17.1401 141.289 16.7573 141.617C16.3745 141.945 15.9162 142.109 15.3823 142.109ZM15.3823 141.656C16.0308 141.656 16.5399 141.335 16.9097 140.691C17.2795 140.046 17.4644 139.148 17.4644 138C17.4644 137.234 17.3797 136.578 17.2104 136.031C17.0438 135.484 16.8055 135.066 16.4956 134.777C16.1857 134.486 15.8146 134.34 15.3823 134.34C14.7339 134.34 14.2248 134.663 13.855 135.309C13.4852 135.954 13.3003 136.852 13.3003 138C13.3003 138.766 13.3836 139.422 13.5503 139.969C13.717 140.513 13.9552 140.931 14.2651 141.223C14.5776 141.512 14.95 141.656 15.3823 141.656Z" fill="white"/>
<path d="M91.04 134V142H90.0713V135.016H90.0244L88.0713 136.312V135.328L90.0713 134H91.04ZM93.3408 142V141.297L95.9814 138.406C96.2913 138.068 96.5465 137.773 96.7471 137.523C96.9476 137.271 97.096 137.034 97.1924 136.812C97.2913 136.589 97.3408 136.354 97.3408 136.109C97.3408 135.828 97.2731 135.585 97.1377 135.379C97.0049 135.173 96.8226 135.014 96.5908 134.902C96.359 134.79 96.0986 134.734 95.8096 134.734C95.5023 134.734 95.234 134.798 95.0049 134.926C94.7783 135.051 94.6025 135.227 94.4775 135.453C94.3551 135.68 94.2939 135.945 94.2939 136.25H93.3721C93.3721 135.781 93.4801 135.37 93.6963 135.016C93.9124 134.661 94.2067 134.385 94.5791 134.187C94.9541 133.99 95.3747 133.891 95.8408 133.891C96.3096 133.891 96.7249 133.99 97.0869 134.187C97.4489 134.385 97.7327 134.652 97.9385 134.988C98.1442 135.324 98.2471 135.698 98.2471 136.109C98.2471 136.404 98.1937 136.691 98.0869 136.973C97.9827 137.251 97.8005 137.562 97.54 137.906C97.2822 138.247 96.9242 138.664 96.4658 139.156L94.6689 141.078V141.141H98.3877V142H93.3408Z" fill="#B3B3B3"/>
<path d="M172.153 134V142H171.185V135.016H171.138L169.185 136.312V135.328L171.185 134H172.153ZM177.157 142.109C176.642 142.109 176.182 142.021 175.778 141.844C175.377 141.667 175.058 141.421 174.821 141.105C174.587 140.788 174.459 140.419 174.438 140H175.423C175.444 140.258 175.532 140.48 175.688 140.668C175.845 140.853 176.049 140.996 176.302 141.098C176.554 141.199 176.834 141.25 177.142 141.25C177.485 141.25 177.79 141.19 178.056 141.07C178.321 140.951 178.53 140.784 178.681 140.57C178.832 140.357 178.907 140.109 178.907 139.828C178.907 139.534 178.834 139.275 178.688 139.051C178.543 138.824 178.329 138.647 178.048 138.52C177.767 138.392 177.423 138.328 177.017 138.328H176.376V137.469H177.017C177.334 137.469 177.613 137.411 177.853 137.297C178.095 137.182 178.284 137.021 178.419 136.812C178.557 136.604 178.626 136.359 178.626 136.078C178.626 135.807 178.566 135.572 178.446 135.371C178.326 135.171 178.157 135.014 177.938 134.902C177.722 134.79 177.467 134.734 177.173 134.734C176.897 134.734 176.636 134.785 176.392 134.887C176.149 134.986 175.951 135.13 175.798 135.32C175.644 135.508 175.561 135.734 175.548 136H174.61C174.626 135.581 174.752 135.214 174.989 134.898C175.226 134.581 175.536 134.333 175.919 134.156C176.304 133.979 176.728 133.891 177.188 133.891C177.683 133.891 178.108 133.991 178.462 134.191C178.816 134.389 179.088 134.651 179.278 134.977C179.468 135.302 179.563 135.654 179.563 136.031C179.563 136.482 179.445 136.866 179.208 137.184C178.974 137.501 178.655 137.721 178.251 137.844V137.906C178.756 137.99 179.151 138.204 179.435 138.551C179.718 138.895 179.86 139.32 179.86 139.828C179.86 140.263 179.742 140.654 179.505 141C179.271 141.344 178.95 141.615 178.544 141.812C178.138 142.01 177.675 142.109 177.157 142.109Z" fill="#B3B3B3"/>
<path d="M253.413 134V142H252.444V135.016H252.397L250.444 136.312V135.328L252.444 134H253.413ZM255.526 140.359V139.562L259.042 134H259.62V135.234H259.229L256.573 139.437V139.5H261.307V140.359H255.526ZM259.292 142V140.117V139.746V134H260.213V142H259.292Z" fill="#B3B3B3"/>
<path d="M334.88 134V142H333.912V135.016H333.865L331.912 136.312V135.328L333.912 134H334.88ZM339.681 142.109C339.223 142.109 338.81 142.018 338.443 141.836C338.076 141.654 337.781 141.404 337.56 141.086C337.339 140.768 337.218 140.406 337.197 140H338.134C338.171 140.362 338.335 140.661 338.626 140.898C338.921 141.133 339.272 141.25 339.681 141.25C340.009 141.25 340.301 141.173 340.556 141.02C340.814 140.866 341.016 140.655 341.162 140.387C341.31 140.116 341.384 139.81 341.384 139.469C341.384 139.12 341.307 138.809 341.154 138.535C341.003 138.259 340.794 138.042 340.529 137.883C340.263 137.724 339.96 137.643 339.619 137.641C339.374 137.638 339.123 137.676 338.865 137.754C338.607 137.829 338.395 137.927 338.228 138.047L337.322 137.937L337.806 134H341.962V134.859H338.619L338.337 137.219H338.384C338.548 137.089 338.754 136.98 339.001 136.895C339.249 136.809 339.507 136.766 339.775 136.766C340.264 136.766 340.701 136.883 341.083 137.117C341.469 137.349 341.771 137.667 341.99 138.07C342.211 138.474 342.322 138.935 342.322 139.453C342.322 139.964 342.207 140.419 341.978 140.82C341.751 141.219 341.439 141.534 341.041 141.766C340.642 141.995 340.189 142.109 339.681 142.109Z" fill="#B3B3B3"/>
<path d="M416.081 134V142H415.112V135.016H415.065L413.112 136.312V135.328L415.112 134H416.081ZM421.038 142.109C420.709 142.104 420.381 142.042 420.053 141.922C419.725 141.802 419.426 141.6 419.155 141.316C418.884 141.03 418.667 140.643 418.502 140.156C418.338 139.667 418.256 139.052 418.256 138.312C418.256 137.604 418.323 136.977 418.456 136.43C418.588 135.88 418.781 135.418 419.034 135.043C419.286 134.665 419.591 134.379 419.948 134.184C420.307 133.988 420.712 133.891 421.163 133.891C421.611 133.891 422.009 133.98 422.358 134.16C422.709 134.337 422.996 134.585 423.217 134.902C423.439 135.22 423.582 135.586 423.647 136H422.694C422.605 135.641 422.433 135.342 422.178 135.105C421.923 134.868 421.584 134.75 421.163 134.75C420.543 134.75 420.055 135.02 419.698 135.559C419.344 136.098 419.165 136.854 419.163 137.828H419.225C419.371 137.607 419.544 137.418 419.745 137.262C419.948 137.103 420.172 136.98 420.417 136.895C420.661 136.809 420.92 136.766 421.194 136.766C421.652 136.766 422.071 136.88 422.452 137.109C422.832 137.336 423.137 137.65 423.366 138.051C423.595 138.449 423.709 138.906 423.709 139.422C423.709 139.917 423.599 140.37 423.377 140.781C423.156 141.19 422.845 141.516 422.444 141.758C422.045 141.997 421.577 142.115 421.038 142.109ZM421.038 141.25C421.366 141.25 421.66 141.168 421.92 141.004C422.183 140.84 422.39 140.62 422.542 140.344C422.695 140.068 422.772 139.76 422.772 139.422C422.772 139.091 422.698 138.79 422.549 138.52C422.403 138.246 422.202 138.029 421.944 137.867C421.689 137.706 421.397 137.625 421.069 137.625C420.821 137.625 420.591 137.674 420.377 137.773C420.164 137.87 419.976 138.003 419.815 138.172C419.656 138.341 419.531 138.535 419.44 138.754C419.349 138.97 419.303 139.198 419.303 139.437C419.303 139.755 419.377 140.052 419.526 140.328C419.677 140.604 419.883 140.827 420.143 140.996C420.406 141.165 420.704 141.25 421.038 141.25Z" fill="#B3B3B3"/>
<path d="M497.656 134V142H496.687V135.016H496.64L494.687 136.312V135.328L496.687 134H497.656ZM500.207 142L503.785 134.922V134.859H499.66V134H504.785V134.906L501.222 142H500.207Z" fill="#FFCA29"/>
<path d="M578.695 134V142H577.726V135.016H577.679L575.726 136.312V135.328L577.726 134H578.695ZM583.558 142.109C583.022 142.109 582.548 142.014 582.136 141.824C581.727 141.632 581.408 141.367 581.179 141.031C580.95 140.693 580.837 140.307 580.839 139.875C580.837 139.536 580.903 139.224 581.039 138.937C581.174 138.648 581.359 138.408 581.593 138.215C581.83 138.02 582.095 137.896 582.386 137.844V137.797C582.003 137.698 581.699 137.483 581.472 137.152C581.246 136.819 581.134 136.44 581.136 136.016C581.134 135.609 581.236 135.246 581.445 134.926C581.653 134.605 581.94 134.353 582.304 134.168C582.671 133.983 583.089 133.891 583.558 133.891C584.022 133.891 584.436 133.983 584.8 134.168C585.165 134.353 585.451 134.605 585.66 134.926C585.871 135.246 585.977 135.609 585.98 136.016C585.977 136.44 585.861 136.819 585.632 137.152C585.406 137.483 585.105 137.698 584.73 137.797V137.844C585.019 137.896 585.279 138.02 585.511 138.215C585.743 138.408 585.928 138.648 586.066 138.937C586.204 139.224 586.274 139.536 586.277 139.875C586.274 140.307 586.157 140.693 585.925 141.031C585.696 141.367 585.377 141.632 584.968 141.824C584.562 142.014 584.092 142.109 583.558 142.109ZM583.558 141.25C583.92 141.25 584.233 141.191 584.496 141.074C584.759 140.957 584.962 140.792 585.105 140.578C585.248 140.365 585.321 140.115 585.324 139.828C585.321 139.526 585.243 139.259 585.089 139.027C584.936 138.796 584.726 138.613 584.46 138.48C584.197 138.348 583.897 138.281 583.558 138.281C583.217 138.281 582.912 138.348 582.644 138.48C582.378 138.613 582.169 138.796 582.015 139.027C581.864 139.259 581.79 139.526 581.792 139.828C581.79 140.115 581.859 140.365 582 140.578C582.143 140.792 582.347 140.957 582.613 141.074C582.878 141.191 583.194 141.25 583.558 141.25ZM583.558 137.453C583.845 137.453 584.098 137.396 584.32 137.281C584.544 137.167 584.72 137.007 584.847 136.801C584.975 136.595 585.04 136.354 585.042 136.078C585.04 135.807 584.976 135.572 584.851 135.371C584.726 135.168 584.553 135.012 584.332 134.902C584.11 134.79 583.852 134.734 583.558 134.734C583.259 134.734 582.997 134.79 582.773 134.902C582.549 135.012 582.376 135.168 582.253 135.371C582.131 135.572 582.071 135.807 582.074 136.078C582.071 136.354 582.132 136.595 582.257 136.801C582.385 137.007 582.561 137.167 582.785 137.281C583.009 137.396 583.266 137.453 583.558 137.453Z" fill="#FFCA29"/>
</g>
<g clip-path="url(#clip5_632_4175)">
<rect y="158" width="24" height="24" rx="4" fill="#FFA91E"/>
<path d="M7.22217 174.5V174.129L9.81201 171.145C10.1818 170.717 10.4748 170.355 10.6909 170.059C10.9071 169.762 11.062 169.493 11.1558 169.254C11.2495 169.014 11.2964 168.764 11.2964 168.504C11.2964 168.178 11.2196 167.891 11.0659 167.641C10.9149 167.388 10.7078 167.191 10.4448 167.051C10.1844 166.91 9.88753 166.84 9.5542 166.84C9.20524 166.84 8.89925 166.917 8.63623 167.07C8.37321 167.224 8.16748 167.432 8.01904 167.695C7.87321 167.958 7.80029 168.254 7.80029 168.582H7.32764C7.32764 168.168 7.42399 167.796 7.6167 167.465C7.80941 167.134 8.07373 166.872 8.40967 166.68C8.74821 166.487 9.13363 166.391 9.56592 166.391C9.9904 166.391 10.368 166.483 10.6987 166.668C11.0295 166.853 11.2899 167.105 11.48 167.426C11.6701 167.743 11.7651 168.103 11.7651 168.504C11.7651 168.798 11.7144 169.082 11.6128 169.355C11.5138 169.626 11.3433 169.93 11.1011 170.266C10.8589 170.599 10.5243 171.01 10.0972 171.5L7.92529 174.004V174.047H12.1245V174.5H7.22217ZM16.1147 166.5V174.5H15.6265V167.016H15.5796L13.7827 168.207V167.684L15.564 166.5H16.1147Z" fill="white"/>
<path d="M90.938 166.5V174.5H89.9692V167.516H89.9224L87.9692 168.812V167.828L89.9692 166.5H90.938ZM95.7856 166.391C96.1138 166.393 96.4419 166.456 96.77 166.578C97.0981 166.701 97.3976 166.904 97.6685 167.187C97.9393 167.469 98.1567 167.853 98.3208 168.34C98.4849 168.827 98.5669 169.437 98.5669 170.172C98.5669 170.883 98.4992 171.514 98.3638 172.066C98.231 172.616 98.0382 173.079 97.7856 173.457C97.5356 173.835 97.231 174.121 96.8716 174.316C96.5148 174.512 96.1112 174.609 95.6606 174.609C95.2127 174.609 94.813 174.521 94.4614 174.344C94.1125 174.164 93.826 173.915 93.6021 173.598C93.3807 173.277 93.2388 172.906 93.1763 172.484H94.1294C94.2153 172.852 94.3859 173.155 94.6411 173.395C94.8989 173.632 95.2388 173.75 95.6606 173.75C96.2778 173.75 96.7648 173.48 97.1216 172.941C97.481 172.402 97.6606 171.641 97.6606 170.656H97.5981C97.4523 170.875 97.2791 171.064 97.0786 171.223C96.8781 171.382 96.6554 171.504 96.4106 171.59C96.1659 171.676 95.9054 171.719 95.6294 171.719C95.1711 171.719 94.7505 171.605 94.3677 171.379C93.9875 171.15 93.6828 170.836 93.4536 170.437C93.2271 170.036 93.1138 169.578 93.1138 169.062C93.1138 168.573 93.2231 168.125 93.4419 167.719C93.6632 167.31 93.9731 166.984 94.3716 166.742C94.7726 166.5 95.244 166.383 95.7856 166.391ZM95.7856 167.25C95.4575 167.25 95.1619 167.332 94.8989 167.496C94.6385 167.658 94.4315 167.876 94.2778 168.152C94.1268 168.426 94.0513 168.729 94.0513 169.062C94.0513 169.396 94.1242 169.699 94.27 169.973C94.4185 170.243 94.6203 170.46 94.8755 170.621C95.1333 170.78 95.4263 170.859 95.7544 170.859C96.0018 170.859 96.2323 170.811 96.4458 170.715C96.6593 170.616 96.8455 170.482 97.0044 170.312C97.1659 170.141 97.2922 169.947 97.3833 169.73C97.4744 169.512 97.52 169.284 97.52 169.047C97.52 168.734 97.4445 168.441 97.2935 168.168C97.145 167.895 96.9393 167.673 96.6763 167.504C96.4159 167.335 96.119 167.25 95.7856 167.25Z" fill="#B3B3B3"/>
<path d="M168.632 174.5V173.797L171.272 170.906C171.582 170.568 171.838 170.273 172.038 170.023C172.239 169.771 172.387 169.534 172.483 169.312C172.582 169.089 172.632 168.854 172.632 168.609C172.632 168.328 172.564 168.085 172.429 167.879C172.296 167.673 172.114 167.514 171.882 167.402C171.65 167.29 171.39 167.234 171.101 167.234C170.793 167.234 170.525 167.298 170.296 167.426C170.069 167.551 169.894 167.727 169.769 167.953C169.646 168.18 169.585 168.445 169.585 168.75H168.663C168.663 168.281 168.771 167.87 168.987 167.516C169.203 167.161 169.498 166.885 169.87 166.687C170.245 166.49 170.666 166.391 171.132 166.391C171.601 166.391 172.016 166.49 172.378 166.687C172.74 166.885 173.024 167.152 173.229 167.488C173.435 167.824 173.538 168.198 173.538 168.609C173.538 168.904 173.485 169.191 173.378 169.473C173.274 169.751 173.091 170.062 172.831 170.406C172.573 170.747 172.215 171.164 171.757 171.656L169.96 173.578V173.641H173.679V174.5H168.632ZM177.901 174.609C177.313 174.609 176.812 174.449 176.397 174.129C175.983 173.806 175.667 173.339 175.448 172.727C175.229 172.112 175.12 171.37 175.12 170.5C175.12 169.635 175.229 168.897 175.448 168.285C175.67 167.671 175.987 167.202 176.401 166.879C176.818 166.553 177.318 166.391 177.901 166.391C178.485 166.391 178.983 166.553 179.397 166.879C179.814 167.202 180.132 167.671 180.351 168.285C180.572 168.897 180.683 169.635 180.683 170.5C180.683 171.37 180.573 172.112 180.354 172.727C180.136 173.339 179.819 173.806 179.405 174.129C178.991 174.449 178.49 174.609 177.901 174.609ZM177.901 173.75C178.485 173.75 178.938 173.469 179.261 172.906C179.584 172.344 179.745 171.542 179.745 170.5C179.745 169.807 179.671 169.217 179.522 168.73C179.377 168.243 179.166 167.872 178.89 167.617C178.616 167.362 178.287 167.234 177.901 167.234C177.323 167.234 176.871 167.52 176.546 168.09C176.22 168.658 176.058 169.461 176.058 170.5C176.058 171.193 176.131 171.781 176.276 172.266C176.422 172.75 176.632 173.118 176.905 173.371C177.181 173.624 177.513 173.75 177.901 173.75Z" fill="#B3B3B3"/>
<path d="M250.799 174.5V173.797L253.439 170.906C253.749 170.568 254.005 170.273 254.205 170.023C254.406 169.771 254.554 169.534 254.65 169.312C254.749 169.089 254.799 168.854 254.799 168.609C254.799 168.328 254.731 168.085 254.596 167.879C254.463 167.673 254.281 167.514 254.049 167.402C253.817 167.29 253.557 167.234 253.268 167.234C252.96 167.234 252.692 167.298 252.463 167.426C252.236 167.551 252.061 167.727 251.936 167.953C251.813 168.18 251.752 168.445 251.752 168.75H250.83C250.83 168.281 250.938 167.87 251.154 167.516C251.37 167.161 251.665 166.885 252.037 166.687C252.412 166.49 252.833 166.391 253.299 166.391C253.768 166.391 254.183 166.49 254.545 166.687C254.907 166.885 255.191 167.152 255.396 167.488C255.602 167.824 255.705 168.198 255.705 168.609C255.705 168.904 255.652 169.191 255.545 169.473C255.441 169.751 255.258 170.062 254.998 170.406C254.74 170.747 254.382 171.164 253.924 171.656L252.127 173.578V173.641H255.846V174.5H250.799ZM260.271 166.5V174.5H259.303V167.516H259.256L257.303 168.812V167.828L259.303 166.5H260.271Z" fill="#B3B3B3"/>
<path d="M331.311 174.5V173.797L333.951 170.906C334.261 170.568 334.516 170.273 334.717 170.023C334.917 169.771 335.066 169.534 335.162 169.312C335.261 169.089 335.311 168.854 335.311 168.609C335.311 168.328 335.243 168.085 335.107 167.879C334.975 167.673 334.792 167.514 334.561 167.402C334.329 167.29 334.068 167.234 333.779 167.234C333.472 167.234 333.204 167.298 332.975 167.426C332.748 167.551 332.572 167.727 332.447 167.953C332.325 168.18 332.264 168.445 332.264 168.75H331.342C331.342 168.281 331.45 167.87 331.666 167.516C331.882 167.161 332.176 166.885 332.549 166.687C332.924 166.49 333.344 166.391 333.811 166.391C334.279 166.391 334.695 166.49 335.057 166.687C335.419 166.885 335.702 167.152 335.908 167.488C336.114 167.824 336.217 168.198 336.217 168.609C336.217 168.904 336.163 169.191 336.057 169.473C335.952 169.751 335.77 170.062 335.51 170.406C335.252 170.747 334.894 171.164 334.436 171.656L332.639 173.578V173.641H336.357V174.5H331.311ZM337.971 174.5V173.797L340.611 170.906C340.921 170.568 341.176 170.273 341.377 170.023C341.577 169.771 341.726 169.534 341.822 169.312C341.921 169.089 341.971 168.854 341.971 168.609C341.971 168.328 341.903 168.085 341.768 167.879C341.635 167.673 341.452 167.514 341.221 167.402C340.989 167.29 340.729 167.234 340.439 167.234C340.132 167.234 339.864 167.298 339.635 167.426C339.408 167.551 339.232 167.727 339.107 167.953C338.985 168.18 338.924 168.445 338.924 168.75H338.002C338.002 168.281 338.11 167.87 338.326 167.516C338.542 167.161 338.837 166.885 339.209 166.687C339.584 166.49 340.005 166.391 340.471 166.391C340.939 166.391 341.355 166.49 341.717 166.687C342.079 166.885 342.363 167.152 342.568 167.488C342.774 167.824 342.877 168.198 342.877 168.609C342.877 168.904 342.824 169.191 342.717 169.473C342.613 169.751 342.43 170.062 342.17 170.406C341.912 170.747 341.554 171.164 341.096 171.656L339.299 173.578V173.641H343.018V174.5H337.971Z" fill="#B3B3B3"/>
<path d="M412.425 174.5V173.797L415.065 170.906C415.375 170.568 415.631 170.273 415.831 170.023C416.032 169.771 416.18 169.534 416.276 169.312C416.375 169.089 416.425 168.854 416.425 168.609C416.425 168.328 416.357 168.085 416.222 167.879C416.089 167.673 415.907 167.514 415.675 167.402C415.443 167.29 415.183 167.234 414.894 167.234C414.586 167.234 414.318 167.298 414.089 167.426C413.862 167.551 413.687 167.727 413.562 167.953C413.439 168.18 413.378 168.445 413.378 168.75H412.456C412.456 168.281 412.564 167.87 412.78 167.516C412.996 167.161 413.291 166.885 413.663 166.687C414.038 166.49 414.459 166.391 414.925 166.391C415.394 166.391 415.809 166.49 416.171 166.687C416.533 166.885 416.817 167.152 417.022 167.488C417.228 167.824 417.331 168.198 417.331 168.609C417.331 168.904 417.278 169.191 417.171 169.473C417.067 169.751 416.884 170.062 416.624 170.406C416.366 170.747 416.008 171.164 415.55 171.656L413.753 173.578V173.641H417.472V174.5H412.425ZM421.788 174.609C421.272 174.609 420.813 174.521 420.409 174.344C420.008 174.167 419.689 173.921 419.452 173.605C419.218 173.288 419.09 172.919 419.069 172.5H420.054C420.075 172.758 420.163 172.98 420.319 173.168C420.476 173.353 420.68 173.496 420.933 173.598C421.185 173.699 421.465 173.75 421.772 173.75C422.116 173.75 422.421 173.69 422.687 173.57C422.952 173.451 423.16 173.284 423.312 173.07C423.463 172.857 423.538 172.609 423.538 172.328C423.538 172.034 423.465 171.775 423.319 171.551C423.174 171.324 422.96 171.147 422.679 171.02C422.397 170.892 422.054 170.828 421.647 170.828H421.007V169.969H421.647C421.965 169.969 422.244 169.911 422.483 169.797C422.726 169.682 422.914 169.521 423.05 169.312C423.188 169.104 423.257 168.859 423.257 168.578C423.257 168.307 423.197 168.072 423.077 167.871C422.957 167.671 422.788 167.514 422.569 167.402C422.353 167.29 422.098 167.234 421.804 167.234C421.528 167.234 421.267 167.285 421.022 167.387C420.78 167.486 420.582 167.63 420.429 167.82C420.275 168.008 420.192 168.234 420.179 168.5H419.241C419.257 168.081 419.383 167.714 419.62 167.398C419.857 167.081 420.167 166.833 420.55 166.656C420.935 166.479 421.358 166.391 421.819 166.391C422.314 166.391 422.739 166.491 423.093 166.691C423.447 166.889 423.719 167.151 423.909 167.477C424.099 167.802 424.194 168.154 424.194 168.531C424.194 168.982 424.076 169.366 423.839 169.684C423.604 170.001 423.285 170.221 422.882 170.344V170.406C423.387 170.49 423.782 170.704 424.065 171.051C424.349 171.395 424.491 171.82 424.491 172.328C424.491 172.763 424.373 173.154 424.136 173.5C423.901 173.844 423.581 174.115 423.175 174.312C422.769 174.51 422.306 174.609 421.788 174.609Z" fill="#B3B3B3"/>
<path d="M493.769 174.5V173.797L496.41 170.906C496.72 170.568 496.975 170.273 497.175 170.023C497.376 169.771 497.524 169.534 497.621 169.312C497.72 169.089 497.769 168.854 497.769 168.609C497.769 168.328 497.701 168.085 497.566 167.879C497.433 167.673 497.251 167.514 497.019 167.402C496.787 167.29 496.527 167.234 496.238 167.234C495.931 167.234 495.662 167.298 495.433 167.426C495.207 167.551 495.031 167.727 494.906 167.953C494.783 168.18 494.722 168.445 494.722 168.75H493.8C493.8 168.281 493.908 167.87 494.125 167.516C494.341 167.161 494.635 166.885 495.007 166.687C495.382 166.49 495.803 166.391 496.269 166.391C496.738 166.391 497.153 166.49 497.515 166.687C497.877 166.885 498.161 167.152 498.367 167.488C498.572 167.824 498.675 168.198 498.675 168.609C498.675 168.904 498.622 169.191 498.515 169.473C498.411 169.751 498.229 170.062 497.968 170.406C497.71 170.747 497.352 171.164 496.894 171.656L495.097 173.578V173.641H498.816V174.5H493.769ZM500.07 172.859V172.062L503.585 166.5H504.164V167.734H503.773L501.117 171.937V172H505.851V172.859H500.07ZM503.835 174.5V172.617V172.246V166.5H504.757V174.5H503.835Z" fill="#FFCA29"/>
<path d="M575.152 174.5V173.797L577.792 170.906C578.102 170.568 578.358 170.273 578.558 170.023C578.759 169.771 578.907 169.534 579.003 169.312C579.102 169.089 579.152 168.854 579.152 168.609C579.152 168.328 579.084 168.085 578.949 167.879C578.816 167.673 578.634 167.514 578.402 167.402C578.17 167.29 577.91 167.234 577.621 167.234C577.313 167.234 577.045 167.298 576.816 167.426C576.589 167.551 576.414 167.727 576.289 167.953C576.166 168.18 576.105 168.445 576.105 168.75H575.183C575.183 168.281 575.291 167.87 575.507 167.516C575.723 167.161 576.018 166.885 576.39 166.687C576.765 166.49 577.186 166.391 577.652 166.391C578.121 166.391 578.536 166.49 578.898 166.687C579.26 166.885 579.544 167.152 579.75 167.488C579.955 167.824 580.058 168.198 580.058 168.609C580.058 168.904 580.005 169.191 579.898 169.473C579.794 169.751 579.611 170.062 579.351 170.406C579.093 170.747 578.735 171.164 578.277 171.656L576.48 173.578V173.641H580.199V174.5H575.152ZM584.312 174.609C583.854 174.609 583.441 174.518 583.074 174.336C582.707 174.154 582.412 173.904 582.191 173.586C581.97 173.268 581.848 172.906 581.828 172.5H582.765C582.802 172.862 582.966 173.161 583.257 173.398C583.552 173.633 583.903 173.75 584.312 173.75C584.64 173.75 584.932 173.673 585.187 173.52C585.445 173.366 585.647 173.155 585.792 172.887C585.941 172.616 586.015 172.31 586.015 171.969C586.015 171.62 585.938 171.309 585.785 171.035C585.634 170.759 585.425 170.542 585.16 170.383C584.894 170.224 584.591 170.143 584.25 170.141C584.005 170.138 583.753 170.176 583.496 170.254C583.238 170.329 583.026 170.427 582.859 170.547L581.953 170.437L582.437 166.5H586.593V167.359H583.25L582.968 169.719H583.015C583.179 169.589 583.385 169.48 583.632 169.395C583.88 169.309 584.138 169.266 584.406 169.266C584.895 169.266 585.332 169.383 585.714 169.617C586.1 169.849 586.402 170.167 586.621 170.57C586.842 170.974 586.953 171.435 586.953 171.953C586.953 172.464 586.838 172.919 586.609 173.32C586.382 173.719 586.07 174.034 585.671 174.266C585.273 174.495 584.82 174.609 584.312 174.609Z" fill="#FFCA29"/>
</g>
<g clip-path="url(#clip6_632_4175)">
<rect y="190.5" width="24" height="24" rx="4" fill="#FFA91E"/>
<path d="M6.18555 207V206.629L8.77539 203.645C9.14518 203.217 9.43815 202.855 9.6543 202.559C9.87044 202.262 10.0254 201.993 10.1191 201.754C10.2129 201.514 10.2598 201.264 10.2598 201.004C10.2598 200.678 10.1829 200.391 10.0293 200.141C9.87826 199.888 9.67122 199.691 9.4082 199.551C9.14779 199.41 8.85091 199.34 8.51758 199.34C8.16862 199.34 7.86263 199.417 7.59961 199.57C7.33659 199.724 7.13086 199.932 6.98242 200.195C6.83659 200.458 6.76367 200.754 6.76367 201.082H6.29102C6.29102 200.668 6.38737 200.296 6.58008 199.965C6.77279 199.634 7.03711 199.372 7.37305 199.18C7.71159 198.987 8.09701 198.891 8.5293 198.891C8.95378 198.891 9.33138 198.983 9.66211 199.168C9.99284 199.353 10.2533 199.605 10.4434 199.926C10.6335 200.243 10.7285 200.603 10.7285 201.004C10.7285 201.298 10.6777 201.582 10.5762 201.855C10.4772 202.126 10.3066 202.43 10.0645 202.766C9.82227 203.099 9.48763 203.51 9.06055 204L6.88867 206.504V206.547H11.0879V207H6.18555ZM12.9531 207V206.629L15.543 203.645C15.9128 203.217 16.2057 202.855 16.4219 202.559C16.638 202.262 16.793 201.993 16.8867 201.754C16.9805 201.514 17.0273 201.264 17.0273 201.004C17.0273 200.678 16.9505 200.391 16.7969 200.141C16.6458 199.888 16.4388 199.691 16.1758 199.551C15.9154 199.41 15.6185 199.34 15.2852 199.34C14.9362 199.34 14.6302 199.417 14.3672 199.57C14.1042 199.724 13.8984 199.932 13.75 200.195C13.6042 200.458 13.5313 200.754 13.5313 201.082H13.0586C13.0586 200.668 13.1549 200.296 13.3477 199.965C13.5404 199.634 13.8047 199.372 14.1406 199.18C14.4792 198.987 14.8646 198.891 15.2969 198.891C15.7214 198.891 16.099 198.983 16.4297 199.168C16.7604 199.353 17.0208 199.605 17.2109 199.926C17.401 200.243 17.4961 200.603 17.4961 201.004C17.4961 201.298 17.4453 201.582 17.3438 201.855C17.2448 202.126 17.0742 202.43 16.832 202.766C16.5898 203.099 16.2552 203.51 15.8281 204L13.6563 206.504V206.547H17.8555V207H12.9531Z" fill="white"/>
<path d="M87.3521 207V206.297L89.9927 203.406C90.3026 203.068 90.5578 202.773 90.7583 202.523C90.9588 202.271 91.1073 202.034 91.2036 201.812C91.3026 201.589 91.3521 201.354 91.3521 201.109C91.3521 200.828 91.2843 200.585 91.1489 200.379C91.0161 200.173 90.8338 200.014 90.6021 199.902C90.3703 199.79 90.1099 199.734 89.8208 199.734C89.5135 199.734 89.2453 199.798 89.0161 199.926C88.7896 200.051 88.6138 200.227 88.4888 200.453C88.3664 200.68 88.3052 200.945 88.3052 201.25H87.3833C87.3833 200.781 87.4914 200.37 87.7075 200.016C87.9237 199.661 88.2179 199.385 88.5903 199.187C88.9653 198.99 89.3859 198.891 89.8521 198.891C90.3208 198.891 90.7362 198.99 91.0981 199.187C91.4601 199.385 91.744 199.652 91.9497 199.988C92.1554 200.324 92.2583 200.698 92.2583 201.109C92.2583 201.404 92.2049 201.691 92.0981 201.973C91.994 202.251 91.8117 202.562 91.5513 202.906C91.2935 203.247 90.9354 203.664 90.4771 204.156L88.6802 206.078V206.141H92.3989V207H87.3521ZM96.6685 207.109C96.3403 207.104 96.0122 207.042 95.6841 206.922C95.356 206.802 95.0565 206.6 94.7856 206.316C94.5148 206.03 94.2974 205.643 94.1333 205.156C93.9692 204.667 93.8872 204.052 93.8872 203.312C93.8872 202.604 93.9536 201.977 94.0864 201.43C94.2192 200.88 94.4119 200.418 94.6646 200.043C94.9172 199.665 95.2218 199.379 95.5786 199.184C95.938 198.988 96.3429 198.891 96.7935 198.891C97.2414 198.891 97.6398 198.98 97.9888 199.16C98.3403 199.337 98.6268 199.585 98.8481 199.902C99.0695 200.22 99.2127 200.586 99.2778 201H98.3247C98.2362 200.641 98.0643 200.342 97.8091 200.105C97.5539 199.868 97.2153 199.75 96.7935 199.75C96.1737 199.75 95.6854 200.02 95.3286 200.559C94.9744 201.098 94.7961 201.854 94.7935 202.828H94.856C95.0018 202.607 95.175 202.418 95.3755 202.262C95.5786 202.103 95.8026 201.98 96.0474 201.895C96.2922 201.809 96.5513 201.766 96.8247 201.766C97.283 201.766 97.7023 201.88 98.0825 202.109C98.4627 202.336 98.7674 202.65 98.9966 203.051C99.2257 203.449 99.3403 203.906 99.3403 204.422C99.3403 204.917 99.2297 205.37 99.0083 205.781C98.7869 206.19 98.4757 206.516 98.0747 206.758C97.6763 206.997 97.2075 207.115 96.6685 207.109ZM96.6685 206.25C96.9966 206.25 97.2909 206.168 97.5513 206.004C97.8143 205.84 98.0213 205.62 98.1724 205.344C98.326 205.068 98.4028 204.76 98.4028 204.422C98.4028 204.091 98.3286 203.79 98.1802 203.52C98.0343 203.246 97.8325 203.029 97.5747 202.867C97.3195 202.706 97.0278 202.625 96.6997 202.625C96.4523 202.625 96.2218 202.674 96.0083 202.773C95.7948 202.87 95.6073 203.003 95.4458 203.172C95.2869 203.341 95.1619 203.535 95.0708 203.754C94.9797 203.97 94.9341 204.198 94.9341 204.437C94.9341 204.755 95.0083 205.052 95.1567 205.328C95.3078 205.604 95.5135 205.827 95.7739 205.996C96.0369 206.165 96.3351 206.25 96.6685 206.25Z" fill="#B3B3B3"/>
<path d="M168.927 207V206.297L171.568 203.406C171.878 203.068 172.133 202.773 172.333 202.523C172.534 202.271 172.682 202.034 172.779 201.812C172.878 201.589 172.927 201.354 172.927 201.109C172.927 200.828 172.86 200.585 172.724 200.379C172.591 200.173 172.409 200.014 172.177 199.902C171.945 199.79 171.685 199.734 171.396 199.734C171.089 199.734 170.82 199.798 170.591 199.926C170.365 200.051 170.189 200.227 170.064 200.453C169.942 200.68 169.88 200.945 169.88 201.25H168.958C168.958 200.781 169.067 200.37 169.283 200.016C169.499 199.661 169.793 199.385 170.166 199.187C170.541 198.99 170.961 198.891 171.427 198.891C171.896 198.891 172.311 198.99 172.673 199.187C173.035 199.385 173.319 199.652 173.525 199.988C173.731 200.324 173.833 200.698 173.833 201.109C173.833 201.404 173.78 201.691 173.673 201.973C173.569 202.251 173.387 202.562 173.126 202.906C172.869 203.247 172.511 203.664 172.052 204.156L170.255 206.078V206.141H173.974V207H168.927ZM175.837 207L179.416 199.922V199.859H175.291V199H180.416V199.906L176.853 207H175.837Z" fill="#B3B3B3"/>
<path d="M249.966 207V206.297L252.607 203.406C252.917 203.068 253.172 202.773 253.373 202.523C253.573 202.271 253.722 202.034 253.818 201.812C253.917 201.589 253.966 201.354 253.966 201.109C253.966 200.828 253.899 200.585 253.763 200.379C253.63 200.173 253.448 200.014 253.216 199.902C252.985 199.79 252.724 199.734 252.435 199.734C252.128 199.734 251.86 199.798 251.63 199.926C251.404 200.051 251.228 200.227 251.103 200.453C250.981 200.68 250.919 200.945 250.919 201.25H249.998C249.998 200.781 250.106 200.37 250.322 200.016C250.538 199.661 250.832 199.385 251.205 199.187C251.58 198.99 252 198.891 252.466 198.891C252.935 198.891 253.35 198.99 253.712 199.187C254.074 199.385 254.358 199.652 254.564 199.988C254.77 200.324 254.873 200.698 254.873 201.109C254.873 201.404 254.819 201.691 254.712 201.973C254.608 202.251 254.426 202.562 254.166 202.906C253.908 203.247 253.55 203.664 253.091 204.156L251.294 206.078V206.141H255.013V207H249.966ZM259.189 207.109C258.653 207.109 258.179 207.014 257.767 206.824C257.358 206.632 257.039 206.367 256.81 206.031C256.581 205.693 256.468 205.307 256.47 204.875C256.468 204.536 256.534 204.224 256.669 203.937C256.805 203.648 256.99 203.408 257.224 203.215C257.461 203.02 257.725 202.896 258.017 202.844V202.797C257.634 202.698 257.33 202.483 257.103 202.152C256.876 201.819 256.764 201.44 256.767 201.016C256.764 200.609 256.867 200.246 257.076 199.926C257.284 199.605 257.57 199.353 257.935 199.168C258.302 198.983 258.72 198.891 259.189 198.891C259.653 198.891 260.067 198.983 260.431 199.168C260.796 199.353 261.082 199.605 261.291 199.926C261.501 200.246 261.608 200.609 261.611 201.016C261.608 201.44 261.492 201.819 261.263 202.152C261.037 202.483 260.736 202.698 260.361 202.797V202.844C260.65 202.896 260.91 203.02 261.142 203.215C261.374 203.408 261.559 203.648 261.697 203.937C261.835 204.224 261.905 204.536 261.908 204.875C261.905 205.307 261.788 205.693 261.556 206.031C261.327 206.367 261.008 206.632 260.599 206.824C260.193 207.014 259.723 207.109 259.189 207.109ZM259.189 206.25C259.551 206.25 259.863 206.191 260.126 206.074C260.389 205.957 260.593 205.792 260.736 205.578C260.879 205.365 260.952 205.115 260.955 204.828C260.952 204.526 260.874 204.259 260.72 204.027C260.567 203.796 260.357 203.613 260.091 203.48C259.828 203.348 259.528 203.281 259.189 203.281C258.848 203.281 258.543 203.348 258.275 203.48C258.009 203.613 257.8 203.796 257.646 204.027C257.495 204.259 257.421 204.526 257.423 204.828C257.421 205.115 257.49 205.365 257.63 205.578C257.774 205.792 257.978 205.957 258.244 206.074C258.509 206.191 258.824 206.25 259.189 206.25ZM259.189 202.453C259.475 202.453 259.729 202.396 259.951 202.281C260.175 202.167 260.35 202.007 260.478 201.801C260.606 201.595 260.671 201.354 260.673 201.078C260.671 200.807 260.607 200.572 260.482 200.371C260.357 200.168 260.184 200.012 259.962 199.902C259.741 199.79 259.483 199.734 259.189 199.734C258.889 199.734 258.628 199.79 258.404 199.902C258.18 200.012 258.007 200.168 257.884 200.371C257.762 200.572 257.702 200.807 257.705 201.078C257.702 201.354 257.763 201.595 257.888 201.801C258.016 202.007 258.192 202.167 258.416 202.281C258.639 202.396 258.897 202.453 259.189 202.453Z" fill="#B3B3B3"/>
<path d="M331.208 207V206.297L333.849 203.406C334.159 203.068 334.414 202.773 334.615 202.523C334.815 202.271 334.964 202.034 335.06 201.812C335.159 201.589 335.208 201.354 335.208 201.109C335.208 200.828 335.141 200.585 335.005 200.379C334.873 200.173 334.69 200.014 334.458 199.902C334.227 199.79 333.966 199.734 333.677 199.734C333.37 199.734 333.102 199.798 332.873 199.926C332.646 200.051 332.47 200.227 332.345 200.453C332.223 200.68 332.162 200.945 332.162 201.25H331.24C331.24 200.781 331.348 200.37 331.564 200.016C331.78 199.661 332.074 199.385 332.447 199.187C332.822 198.99 333.242 198.891 333.708 198.891C334.177 198.891 334.593 198.99 334.955 199.187C335.317 199.385 335.6 199.652 335.806 199.988C336.012 200.324 336.115 200.698 336.115 201.109C336.115 201.404 336.061 201.691 335.955 201.973C335.85 202.251 335.668 202.562 335.408 202.906C335.15 203.247 334.792 203.664 334.333 204.156L332.537 206.078V206.141H336.255V207H331.208ZM340.416 198.891C340.744 198.893 341.072 198.956 341.4 199.078C341.728 199.201 342.028 199.404 342.298 199.687C342.569 199.969 342.787 200.353 342.951 200.84C343.115 201.327 343.197 201.937 343.197 202.672C343.197 203.383 343.129 204.014 342.994 204.566C342.861 205.116 342.668 205.579 342.416 205.957C342.166 206.335 341.861 206.621 341.501 206.816C341.145 207.012 340.741 207.109 340.291 207.109C339.843 207.109 339.443 207.021 339.091 206.844C338.742 206.664 338.456 206.415 338.232 206.098C338.011 205.777 337.869 205.406 337.806 204.984H338.759C338.845 205.352 339.016 205.655 339.271 205.895C339.529 206.132 339.869 206.25 340.291 206.25C340.908 206.25 341.395 205.98 341.751 205.441C342.111 204.902 342.291 204.141 342.291 203.156H342.228C342.082 203.375 341.909 203.564 341.708 203.723C341.508 203.882 341.285 204.004 341.041 204.09C340.796 204.176 340.535 204.219 340.259 204.219C339.801 204.219 339.38 204.105 338.998 203.879C338.617 203.65 338.313 203.336 338.083 202.937C337.857 202.536 337.744 202.078 337.744 201.562C337.744 201.073 337.853 200.625 338.072 200.219C338.293 199.81 338.603 199.484 339.001 199.242C339.403 199 339.874 198.883 340.416 198.891ZM340.416 199.75C340.087 199.75 339.792 199.832 339.529 199.996C339.268 200.158 339.061 200.376 338.908 200.652C338.757 200.926 338.681 201.229 338.681 201.562C338.681 201.896 338.754 202.199 338.9 202.473C339.048 202.743 339.25 202.96 339.505 203.121C339.763 203.28 340.056 203.359 340.384 203.359C340.632 203.359 340.862 203.311 341.076 203.215C341.289 203.116 341.475 202.982 341.634 202.812C341.796 202.641 341.922 202.447 342.013 202.23C342.104 202.012 342.15 201.784 342.15 201.547C342.15 201.234 342.074 200.941 341.923 200.668C341.775 200.395 341.569 200.173 341.306 200.004C341.046 199.835 340.749 199.75 340.416 199.75Z" fill="#B3B3B3"/>
<path d="M415.021 207.109C414.505 207.109 414.045 207.021 413.642 206.844C413.241 206.667 412.922 206.421 412.685 206.105C412.45 205.788 412.323 205.419 412.302 205H413.286C413.307 205.258 413.396 205.48 413.552 205.668C413.708 205.853 413.912 205.996 414.165 206.098C414.418 206.199 414.698 206.25 415.005 206.25C415.349 206.25 415.653 206.19 415.919 206.07C416.185 205.951 416.393 205.784 416.544 205.57C416.695 205.357 416.771 205.109 416.771 204.828C416.771 204.534 416.698 204.275 416.552 204.051C416.406 203.824 416.192 203.647 415.911 203.52C415.63 203.392 415.286 203.328 414.88 203.328H414.239V202.469H414.88C415.198 202.469 415.476 202.411 415.716 202.297C415.958 202.182 416.147 202.021 416.282 201.812C416.42 201.604 416.489 201.359 416.489 201.078C416.489 200.807 416.429 200.572 416.31 200.371C416.19 200.171 416.021 200.014 415.802 199.902C415.586 199.79 415.33 199.734 415.036 199.734C414.76 199.734 414.5 199.785 414.255 199.887C414.013 199.986 413.815 200.13 413.661 200.32C413.507 200.508 413.424 200.734 413.411 201H412.474C412.489 200.581 412.616 200.214 412.853 199.898C413.09 199.581 413.399 199.333 413.782 199.156C414.168 198.979 414.591 198.891 415.052 198.891C415.547 198.891 415.971 198.991 416.325 199.191C416.679 199.389 416.951 199.651 417.142 199.977C417.332 200.302 417.427 200.654 417.427 201.031C417.427 201.482 417.308 201.866 417.071 202.184C416.837 202.501 416.518 202.721 416.114 202.844V202.906C416.619 202.99 417.014 203.204 417.298 203.551C417.582 203.895 417.724 204.32 417.724 204.828C417.724 205.263 417.605 205.654 417.368 206C417.134 206.344 416.813 206.615 416.407 206.812C416.001 207.01 415.539 207.109 415.021 207.109ZM421.931 207.109C421.342 207.109 420.841 206.949 420.427 206.629C420.013 206.306 419.696 205.839 419.478 205.227C419.259 204.612 419.149 203.87 419.149 203C419.149 202.135 419.259 201.397 419.478 200.785C419.699 200.171 420.017 199.702 420.431 199.379C420.847 199.053 421.347 198.891 421.931 198.891C422.514 198.891 423.013 199.053 423.427 199.379C423.843 199.702 424.161 200.171 424.38 200.785C424.601 201.397 424.712 202.135 424.712 203C424.712 203.87 424.603 204.612 424.384 205.227C424.165 205.839 423.849 206.306 423.435 206.629C423.021 206.949 422.519 207.109 421.931 207.109ZM421.931 206.25C422.514 206.25 422.967 205.969 423.29 205.406C423.613 204.844 423.774 204.042 423.774 203C423.774 202.307 423.7 201.717 423.552 201.23C423.406 200.743 423.195 200.372 422.919 200.117C422.646 199.862 422.316 199.734 421.931 199.734C421.353 199.734 420.901 200.02 420.575 200.59C420.25 201.158 420.087 201.961 420.087 203C420.087 203.693 420.16 204.281 420.306 204.766C420.451 205.25 420.661 205.618 420.935 205.871C421.211 206.124 421.543 206.25 421.931 206.25Z" fill="#B3B3B3"/>
<path d="M497.187 207.109C496.671 207.109 496.211 207.021 495.808 206.844C495.407 206.667 495.088 206.421 494.851 206.105C494.616 205.788 494.489 205.419 494.468 205H495.452C495.473 205.258 495.562 205.48 495.718 205.668C495.874 205.853 496.078 205.996 496.331 206.098C496.584 206.199 496.864 206.25 497.171 206.25C497.515 206.25 497.819 206.19 498.085 206.07C498.351 205.951 498.559 205.784 498.71 205.57C498.861 205.357 498.937 205.109 498.937 204.828C498.937 204.534 498.864 204.275 498.718 204.051C498.572 203.824 498.358 203.647 498.077 203.52C497.796 203.392 497.452 203.328 497.046 203.328H496.405V202.469H497.046C497.364 202.469 497.642 202.411 497.882 202.297C498.124 202.182 498.313 202.021 498.448 201.812C498.586 201.604 498.655 201.359 498.655 201.078C498.655 200.807 498.595 200.572 498.476 200.371C498.356 200.171 498.187 200.014 497.968 199.902C497.752 199.79 497.496 199.734 497.202 199.734C496.926 199.734 496.666 199.785 496.421 199.887C496.179 199.986 495.981 200.13 495.827 200.32C495.674 200.508 495.59 200.734 495.577 201H494.64C494.655 200.581 494.782 200.214 495.019 199.898C495.256 199.581 495.565 199.333 495.948 199.156C496.334 198.979 496.757 198.891 497.218 198.891C497.713 198.891 498.137 198.991 498.491 199.191C498.845 199.389 499.118 199.651 499.308 199.977C499.498 200.302 499.593 200.654 499.593 201.031C499.593 201.482 499.474 201.866 499.237 202.184C499.003 202.501 498.684 202.721 498.28 202.844V202.906C498.785 202.99 499.18 203.204 499.464 203.551C499.748 203.895 499.89 204.32 499.89 204.828C499.89 205.263 499.771 205.654 499.534 206C499.3 206.344 498.979 206.615 498.573 206.812C498.167 207.01 497.705 207.109 497.187 207.109ZM504.3 199V207H503.331V200.016H503.284L501.331 201.312V200.328L503.331 199H504.3Z" fill="#FFCA29"/>
<path d="M582.084 199V207H581.115V200.016H581.068L579.115 201.312V200.328L581.115 199H582.084Z" fill="#FFA91E"/>
</g>
<g clip-path="url(#clip7_632_4175)">
<rect y="223" width="24" height="24" rx="4" fill="#FFA91E"/>
<path d="M6.15332 239.5V239.129L8.74316 236.145C9.11296 235.717 9.40592 235.355 9.62207 235.059C9.83822 234.762 9.99316 234.493 10.0869 234.254C10.1807 234.014 10.2275 233.764 10.2275 233.504C10.2275 233.178 10.1507 232.891 9.99707 232.641C9.84603 232.388 9.639 232.191 9.37598 232.051C9.11556 231.91 8.81868 231.84 8.48535 231.84C8.13639 231.84 7.8304 231.917 7.56738 232.07C7.30436 232.224 7.09863 232.432 6.9502 232.695C6.80436 232.958 6.73145 233.254 6.73145 233.582H6.25879C6.25879 233.168 6.35514 232.796 6.54785 232.465C6.74056 232.134 7.00488 231.872 7.34082 231.68C7.67936 231.487 8.06478 231.391 8.49707 231.391C8.92155 231.391 9.29915 231.483 9.62988 231.668C9.96061 231.853 10.221 232.105 10.4111 232.426C10.6012 232.743 10.6963 233.103 10.6963 233.504C10.6963 233.798 10.6455 234.082 10.5439 234.355C10.445 234.626 10.2744 234.93 10.0322 235.266C9.79004 235.599 9.4554 236.01 9.02832 236.5L6.85645 239.004V239.047H11.0557V239.5H6.15332ZM15.417 239.609C14.943 239.609 14.5199 239.52 14.1475 239.34C13.7751 239.158 13.4795 238.909 13.2607 238.594C13.0446 238.276 12.9326 237.911 12.9248 237.5H13.4209C13.4287 237.826 13.5212 238.113 13.6982 238.363C13.8753 238.611 14.1123 238.805 14.4092 238.945C14.7087 239.086 15.042 239.156 15.4092 239.156C15.8076 239.156 16.1566 239.078 16.4561 238.922C16.7581 238.766 16.9938 238.555 17.1631 238.289C17.3324 238.021 17.417 237.721 17.417 237.391C17.417 237.036 17.3245 236.727 17.1396 236.461C16.9548 236.193 16.6969 235.984 16.3662 235.836C16.0355 235.685 15.6514 235.609 15.2139 235.609H14.917V235.156H15.2139C15.5863 235.156 15.9196 235.089 16.2139 234.953C16.5081 234.815 16.7399 234.621 16.9092 234.371C17.0811 234.121 17.167 233.826 17.167 233.484C17.167 233.164 17.0928 232.88 16.9443 232.633C16.7959 232.385 16.5902 232.191 16.3271 232.051C16.0667 231.91 15.7607 231.84 15.4092 231.84C15.0706 231.84 14.7633 231.909 14.4873 232.047C14.2139 232.185 13.9964 232.379 13.835 232.629C13.6735 232.879 13.5915 233.169 13.5889 233.5H13.1084C13.1136 233.086 13.2178 232.72 13.4209 232.402C13.6266 232.085 13.9014 231.837 14.2451 231.66C14.5915 231.48 14.9821 231.391 15.417 231.391C15.8597 231.391 16.2477 231.483 16.5811 231.668C16.917 231.853 17.1774 232.103 17.3623 232.418C17.5498 232.733 17.6436 233.083 17.6436 233.469C17.6436 233.932 17.5146 234.329 17.2568 234.66C17.0016 234.988 16.6553 235.216 16.2178 235.344V235.387C16.736 235.501 17.1462 235.737 17.4482 236.094C17.7503 236.451 17.9014 236.883 17.9014 237.391C17.9014 237.807 17.7946 238.184 17.5811 238.52C17.3675 238.855 17.0732 239.121 16.6982 239.316C16.3258 239.512 15.8988 239.609 15.417 239.609Z" fill="white"/>
<path d="M90.7842 239.5V238.797L93.4248 235.906C93.7347 235.568 93.9899 235.273 94.1904 235.023C94.391 234.771 94.5394 234.534 94.6357 234.312C94.7347 234.089 94.7842 233.854 94.7842 233.609C94.7842 233.328 94.7165 233.085 94.5811 232.879C94.4482 232.673 94.266 232.514 94.0342 232.402C93.8024 232.29 93.542 232.234 93.2529 232.234C92.9456 232.234 92.6774 232.298 92.4482 232.426C92.2217 232.551 92.0459 232.727 91.9209 232.953C91.7985 233.18 91.7373 233.445 91.7373 233.75H90.8154C90.8154 233.281 90.9235 232.87 91.1396 232.516C91.3558 232.161 91.6501 231.885 92.0225 231.687C92.3975 231.49 92.818 231.391 93.2842 231.391C93.7529 231.391 94.1683 231.49 94.5303 231.687C94.8923 231.885 95.1761 232.152 95.3818 232.488C95.5876 232.824 95.6904 233.198 95.6904 233.609C95.6904 233.904 95.637 234.191 95.5303 234.473C95.4261 234.751 95.2438 235.062 94.9834 235.406C94.7256 235.747 94.3675 236.164 93.9092 236.656L92.1123 238.578V238.641H95.8311V239.5H90.7842Z" fill="#616161"/>
<path d="M174.601 239.609C174.085 239.609 173.625 239.521 173.222 239.344C172.821 239.167 172.502 238.921 172.265 238.605C172.03 238.288 171.903 237.919 171.882 237.5H172.866C172.887 237.758 172.976 237.98 173.132 238.168C173.288 238.353 173.493 238.496 173.745 238.598C173.998 238.699 174.278 238.75 174.585 238.75C174.929 238.75 175.233 238.69 175.499 238.57C175.765 238.451 175.973 238.284 176.124 238.07C176.275 237.857 176.351 237.609 176.351 237.328C176.351 237.034 176.278 236.775 176.132 236.551C175.986 236.324 175.772 236.147 175.491 236.02C175.21 235.892 174.866 235.828 174.46 235.828H173.819V234.969H174.46C174.778 234.969 175.056 234.911 175.296 234.797C175.538 234.682 175.727 234.521 175.862 234.312C176 234.104 176.069 233.859 176.069 233.578C176.069 233.307 176.009 233.072 175.89 232.871C175.77 232.671 175.601 232.514 175.382 232.402C175.166 232.29 174.91 232.234 174.616 232.234C174.34 232.234 174.08 232.285 173.835 232.387C173.593 232.486 173.395 232.63 173.241 232.82C173.088 233.008 173.004 233.234 172.991 233.5H172.054C172.069 233.081 172.196 232.714 172.433 232.398C172.67 232.081 172.979 231.833 173.362 231.656C173.748 231.479 174.171 231.391 174.632 231.391C175.127 231.391 175.551 231.491 175.905 231.691C176.259 231.889 176.532 232.151 176.722 232.477C176.912 232.802 177.007 233.154 177.007 233.531C177.007 233.982 176.888 234.366 176.651 234.684C176.417 235.001 176.098 235.221 175.694 235.344V235.406C176.2 235.49 176.594 235.704 176.878 236.051C177.162 236.395 177.304 236.82 177.304 237.328C177.304 237.763 177.185 238.154 176.948 238.5C176.714 238.844 176.394 239.115 175.987 239.312C175.581 239.51 175.119 239.609 174.601 239.609Z" fill="#616161"/>
<path d="M252.969 237.859V237.062L256.485 231.5H257.063V232.734H256.672L254.016 236.937V237H258.75V237.859H252.969ZM256.735 239.5V237.617V237.246V231.5H257.657V239.5H256.735Z" fill="#616161"/>
<path d="M337.125 239.609C336.666 239.609 336.253 239.518 335.886 239.336C335.519 239.154 335.225 238.904 335.003 238.586C334.782 238.268 334.661 237.906 334.64 237.5H335.578C335.614 237.862 335.778 238.161 336.07 238.398C336.364 238.633 336.716 238.75 337.125 238.75C337.453 238.75 337.744 238.673 338 238.52C338.257 238.366 338.459 238.155 338.605 237.887C338.753 237.616 338.828 237.31 338.828 236.969C338.828 236.62 338.751 236.309 338.597 236.035C338.446 235.759 338.238 235.542 337.972 235.383C337.707 235.224 337.403 235.143 337.062 235.141C336.817 235.138 336.566 235.176 336.308 235.254C336.05 235.329 335.838 235.427 335.671 235.547L334.765 235.437L335.25 231.5H339.406V232.359H336.062L335.781 234.719H335.828C335.992 234.589 336.197 234.48 336.445 234.395C336.692 234.309 336.95 234.266 337.218 234.266C337.708 234.266 338.144 234.383 338.527 234.617C338.912 234.849 339.214 235.167 339.433 235.57C339.654 235.974 339.765 236.435 339.765 236.953C339.765 237.464 339.651 237.919 339.421 238.32C339.195 238.719 338.882 239.034 338.484 239.266C338.085 239.495 337.632 239.609 337.125 239.609Z" fill="#616161"/>
<path d="M418.481 239.609C418.153 239.604 417.825 239.542 417.497 239.422C417.168 239.302 416.869 239.1 416.598 238.816C416.327 238.53 416.11 238.143 415.946 237.656C415.782 237.167 415.7 236.552 415.7 235.812C415.7 235.104 415.766 234.477 415.899 233.93C416.032 233.38 416.224 232.918 416.477 232.543C416.73 232.165 417.034 231.879 417.391 231.684C417.75 231.488 418.155 231.391 418.606 231.391C419.054 231.391 419.452 231.48 419.801 231.66C420.153 231.837 420.439 232.085 420.661 232.402C420.882 232.72 421.025 233.086 421.09 233.5H420.137C420.049 233.141 419.877 232.842 419.622 232.605C419.366 232.368 419.028 232.25 418.606 232.25C417.986 232.25 417.498 232.52 417.141 233.059C416.787 233.598 416.609 234.354 416.606 235.328H416.668C416.814 235.107 416.987 234.918 417.188 234.762C417.391 234.603 417.615 234.48 417.86 234.395C418.105 234.309 418.364 234.266 418.637 234.266C419.096 234.266 419.515 234.38 419.895 234.609C420.275 234.836 420.58 235.15 420.809 235.551C421.038 235.949 421.153 236.406 421.153 236.922C421.153 237.417 421.042 237.87 420.821 238.281C420.599 238.69 420.288 239.016 419.887 239.258C419.489 239.497 419.02 239.615 418.481 239.609ZM418.481 238.75C418.809 238.75 419.103 238.668 419.364 238.504C419.627 238.34 419.834 238.12 419.985 237.844C420.139 237.568 420.215 237.26 420.215 236.922C420.215 236.591 420.141 236.29 419.993 236.02C419.847 235.746 419.645 235.529 419.387 235.367C419.132 235.206 418.84 235.125 418.512 235.125C418.265 235.125 418.034 235.174 417.821 235.273C417.607 235.37 417.42 235.503 417.258 235.672C417.099 235.841 416.974 236.035 416.883 236.254C416.792 236.47 416.747 236.698 416.747 236.937C416.747 237.255 416.821 237.552 416.969 237.828C417.12 238.104 417.326 238.327 417.586 238.496C417.849 238.665 418.148 238.75 418.481 238.75Z" fill="#616161"/>
<path d="M497.65 239.5L501.228 232.422V232.359H497.103V231.5H502.228V232.406L498.666 239.5H497.65Z" fill="#FFA91E"/>
<path d="M581.001 239.609C580.465 239.609 579.991 239.514 579.58 239.324C579.171 239.132 578.852 238.867 578.623 238.531C578.393 238.193 578.28 237.807 578.283 237.375C578.28 237.036 578.347 236.724 578.482 236.437C578.617 236.148 578.802 235.908 579.037 235.715C579.274 235.52 579.538 235.396 579.83 235.344V235.297C579.447 235.198 579.142 234.983 578.916 234.652C578.689 234.319 578.577 233.94 578.58 233.516C578.577 233.109 578.68 232.746 578.888 232.426C579.097 232.105 579.383 231.853 579.748 231.668C580.115 231.483 580.533 231.391 581.001 231.391C581.465 231.391 581.879 231.483 582.244 231.668C582.608 231.853 582.895 232.105 583.103 232.426C583.314 232.746 583.421 233.109 583.423 233.516C583.421 233.94 583.305 234.319 583.076 234.652C582.849 234.983 582.548 235.198 582.173 235.297V235.344C582.462 235.396 582.723 235.52 582.955 235.715C583.186 235.908 583.371 236.148 583.509 236.437C583.647 236.724 583.718 237.036 583.72 237.375C583.718 237.807 583.6 238.193 583.369 238.531C583.139 238.867 582.82 239.132 582.412 239.324C582.005 239.514 581.535 239.609 581.001 239.609ZM581.001 238.75C581.363 238.75 581.676 238.691 581.939 238.574C582.202 238.457 582.405 238.292 582.548 238.078C582.692 237.865 582.764 237.615 582.767 237.328C582.764 237.026 582.686 236.759 582.533 236.527C582.379 236.296 582.169 236.113 581.904 235.98C581.641 235.848 581.34 235.781 581.001 235.781C580.66 235.781 580.356 235.848 580.087 235.98C579.822 236.113 579.612 236.296 579.458 236.527C579.307 236.759 579.233 237.026 579.236 237.328C579.233 237.615 579.302 237.865 579.443 238.078C579.586 238.292 579.791 238.457 580.056 238.574C580.322 238.691 580.637 238.75 581.001 238.75ZM581.001 234.953C581.288 234.953 581.542 234.896 581.763 234.781C581.987 234.667 582.163 234.507 582.291 234.301C582.418 234.095 582.483 233.854 582.486 233.578C582.483 233.307 582.419 233.072 582.294 232.871C582.169 232.668 581.996 232.512 581.775 232.402C581.554 232.29 581.296 232.234 581.001 232.234C580.702 232.234 580.44 232.29 580.216 232.402C579.992 232.512 579.819 232.668 579.697 232.871C579.574 233.072 579.514 233.307 579.517 233.578C579.514 233.854 579.576 234.095 579.701 234.301C579.828 234.507 580.004 234.667 580.228 234.781C580.452 234.896 580.71 234.953 581.001 234.953Z" fill="#FFA91E"/>
</g>
</g>
<defs>
<clipPath id="clip0_632_4175">
<rect width="593" height="219" fill="white" transform="translate(0 28)"/>
</clipPath>
<clipPath id="clip1_632_4175">
<rect width="593" height="24" fill="white" transform="translate(0 28)"/>
</clipPath>
<clipPath id="clip2_632_4175">
<rect width="593" height="24" fill="white" transform="translate(0 60.5)"/>
</clipPath>
<clipPath id="clip3_632_4175">
<rect width="593" height="24" fill="white" transform="translate(0 93)"/>
</clipPath>
<clipPath id="clip4_632_4175">
<rect width="593" height="24" fill="white" transform="translate(0 125.5)"/>
</clipPath>
<clipPath id="clip5_632_4175">
<rect width="593" height="24" fill="white" transform="translate(0 158)"/>
</clipPath>
<clipPath id="clip6_632_4175">
<rect width="593" height="24" fill="white" transform="translate(0 190.5)"/>
</clipPath>
<clipPath id="clip7_632_4175">
<rect width="593" height="24" fill="white" transform="translate(0 223)"/>
</clipPath>
</defs>
</svg>
